<svg width="16" height="16" viewBox="0 0 16 16" fill="none" xmlns="http://www.w3.org/2000/svg">
<path d="M8 15.75C12.2812 15.75 15.75 12.2812 15.75 8C15.75 3.71875 12.2812 0.25 8 0.25C3.71875 0.25 0.25 3.71875 0.25 8C0.25 12.2812 3.71875 15.75 8 15.75ZM8.875 11.2812C9.1875 11.5625 9.1875 12.0625 8.90625 12.3438L8.5625 12.6875C8.28125 12.9688 7.78125 12.9688 7.5 12.6875L3.34375 8.53125C3.0625 8.25 3.0625 7.78125 3.34375 7.46875L7.5 3.34375C7.78125 3.03125 8.25 3.03125 8.5625 3.34375L8.90625 3.6875C9.1875 3.96875 9.1875 4.46875 8.875 4.75L6.53125 7H12.25C12.6562 7 13 7.34375 13 7.75V8.25C13 8.6875 12.6562 9 12.25 9H6.53125L8.875 11.2812Z" fill="#003366"/>
</svg>
