<?xml version="1.0" encoding="UTF-8"?>
<svg id="Layer_2" data-name="Layer 2" xmlns="http://www.w3.org/2000/svg" viewBox="0 0 244.39 50">
  <defs>
    <style>
      .cls-1 {
        fill: #fff;
      }

      .cls-2 {
        fill: #bc202e;
      }

      .cls-3 {
        fill: #221f1f;
      }
    </style>
  </defs>
  <g id="Layer_1-2" data-name="Layer 1-2">
    <g>
      <g>
        <circle class="cls-3" cx="25.2" cy="25" r="22.79"/>
        <g>
          <path class="cls-1" d="M29.47,10.29h13.33v29.49h-7.52V14.53l.14,.08-4.68,25.17h-10.1L15.84,14.55l.14-.06v25.29h-7.53V10.29h13.33l4.22,26.43h-.8s4.28-26.43,4.28-26.43Z"/>
          <path class="cls-2" d="M63.75,10.29h13.57v29.49h-7.66V14.6l.14,.08-4.58,25.11h-10.27l-4.72-25.17,.14-.08v25.25h-7.68V10.29h13.57l4.12,26.41h-.82s4.18-26.41,4.18-26.41Z"/>
        </g>
      </g>
      <g>
        <path class="cls-1" d="M103.02,23.52V14.98l-3.68,5.58h-.07l-3.64-5.53v8.47h-2.82V10.45h3.1l3.44,5.53,3.44-5.53h3.1v13.07h-2.86Z"/>
        <path class="cls-1" d="M117.08,19.5h-6.96c.28,1.29,1.17,1.96,2.44,1.96,.95,0,1.64-.3,2.43-1.03l1.62,1.44c-.93,1.16-2.28,1.87-4.09,1.87-3,0-5.23-2.11-5.23-5.17v-.03c0-2.85,2.03-5.21,4.95-5.21,3.34,0,4.87,2.59,4.87,5.43v.04c0,.28-.02,.45-.04,.71h0Zm-4.83-3.91c-1.17,0-1.94,.84-2.17,2.13h4.27c-.17-1.27-.91-2.13-2.11-2.13Z"/>
        <path class="cls-1" d="M125.52,23.52v-1.44c-.69,.93-1.64,1.62-3.12,1.62-2.34,0-4.55-1.83-4.55-5.17v-.04c0-3.34,2.18-5.17,4.55-5.17,1.51,0,2.44,.69,3.12,1.49v-4.93h2.84v13.63h-2.84Zm.04-5.02c0-1.66-1.1-2.76-2.43-2.76s-2.44,1.08-2.44,2.76v.04c0,1.66,1.12,2.76,2.44,2.76s2.43-1.1,2.43-2.76c0,0,0-.04,0-.04Z"/>
        <path class="cls-1" d="M130.02,12.41v-2.52h2.99v2.52h-2.99Zm.07,11.11V13.51h2.84v10.01h-2.84Z"/>
        <path class="cls-1" d="M140.53,23.52v-1.08c-.69,.76-1.64,1.27-3.03,1.27-1.89,0-3.44-1.08-3.44-3.06v-.04c0-2.18,1.66-3.19,4.03-3.19,1.01,0,1.74,.17,2.44,.41v-.17c0-1.17-.73-1.83-2.15-1.83-1.08,0-1.85,.21-2.76,.54l-.71-2.17c1.1-.48,2.18-.8,3.88-.8,3.1,0,4.46,1.61,4.46,4.31v5.81h-2.74Zm.06-4.04c-.48-.22-1.12-.38-1.81-.38-1.21,0-1.96,.48-1.96,1.38v.04c0,.76,.63,1.21,1.55,1.21,1.33,0,2.22-.73,2.22-1.76v-.5Z"/>
        <path class="cls-1" d="M159.96,23.52V14.98l-3.68,5.58h-.07l-3.64-5.53v8.47h-2.82V10.45h3.1l3.44,5.53,3.44-5.53h3.1v13.07h-2.86Z"/>
        <path class="cls-1" d="M169.63,23.74c-3.1,0-5.4-2.3-5.4-5.17v-.03c0-2.87,2.31-5.21,5.43-5.21s5.4,2.3,5.4,5.17v.04c0,2.87-2.31,5.21-5.43,5.21h0Zm2.63-5.21c0-1.48-1.07-2.76-2.63-2.76s-2.59,1.25-2.59,2.72v.04c0,1.48,1.07,2.76,2.63,2.76s2.59-1.25,2.59-2.72v-.03h0Z"/>
        <path class="cls-1" d="M182.51,23.52v-5.58c0-1.34-.63-2.03-1.72-2.03s-1.77,.69-1.77,2.03v5.58h-2.84V13.51h2.84v1.42c.66-.84,1.49-1.61,2.93-1.61,2.15,0,3.4,1.42,3.4,3.72v6.48h-2.84Z"/>
        <path class="cls-1" d="M186.93,12.41v-2.52h2.99v2.52h-2.99Zm.07,11.11V13.51h2.84v10.01h-2.84Z"/>
        <path class="cls-1" d="M194.96,23.69c-1.74,0-2.91-.69-2.91-3v-4.74h-1.2v-2.43h1.2v-2.56h2.84v2.56h2.35v2.43h-2.35v4.27c0,.66,.28,.97,.91,.97,.52,0,.99-.13,1.4-.35v2.28c-.6,.35-1.29,.58-2.24,.58h0Z"/>
        <path class="cls-1" d="M203.03,23.74c-3.1,0-5.4-2.3-5.4-5.17v-.03c0-2.87,2.31-5.21,5.43-5.21s5.4,2.3,5.4,5.17v.04c0,2.87-2.31,5.21-5.43,5.21h0Zm2.63-5.21c0-1.48-1.07-2.76-2.63-2.76s-2.59,1.25-2.59,2.72v.04c0,1.48,1.07,2.76,2.63,2.76s2.59-1.25,2.59-2.72v-.03h0Z"/>
        <path class="cls-1" d="M215.46,16.3c-1.89,0-3.04,1.14-3.04,3.53v3.7h-2.84V13.51h2.84v2.02c.58-1.38,1.51-2.28,3.19-2.2v2.97h-.15Z"/>
        <path class="cls-1" d="M216.51,12.41v-2.52h2.99v2.52h-2.99Zm.07,11.11V13.51h2.84v10.01h-2.84Z"/>
        <path class="cls-1" d="M227.49,23.52v-5.58c0-1.34-.63-2.03-1.72-2.03s-1.77,.69-1.77,2.03v5.58h-2.84V13.51h2.84v1.42c.66-.84,1.49-1.61,2.93-1.61,2.15,0,3.4,1.42,3.4,3.72v6.48h-2.84Z"/>
        <path class="cls-1" d="M236.34,26.54c-1.62,0-3.16-.38-4.42-1.04l.97-2.13c1.03,.58,2.05,.92,3.38,.92,1.94,0,2.85-.93,2.85-2.72v-.48c-.84,1.01-1.76,1.62-3.27,1.62-2.33,0-4.44-1.7-4.44-4.67v-.04c0-2.99,2.15-4.67,4.44-4.67,1.55,0,2.46,.66,3.23,1.49v-1.3h2.84v7.74c0,3.77-1.87,5.28-5.58,5.28h0Zm2.78-8.55c0-1.36-1.07-2.31-2.44-2.31s-2.43,.95-2.43,2.31v.04c0,1.38,1.04,2.31,2.43,2.31s2.44-.95,2.44-2.31v-.04Z"/>
        <path class="cls-1" d="M93.07,27.76h1.36v12.09h-1.36v-12.09Z"/>
        <path class="cls-1" d="M97.32,30.92h1.33v1.56c.59-.97,1.52-1.74,3.05-1.74,2.16,0,3.42,1.45,3.42,3.57v5.54h-1.33v-5.21c0-1.66-.9-2.7-2.47-2.7s-2.68,1.12-2.68,2.8v5.11h-1.33v-8.93Z"/>
        <path class="cls-1" d="M106.78,38.71l.67-.95c.97,.72,2.04,1.14,3.09,1.14s1.85-.55,1.85-1.42v-.03c0-.9-1.05-1.24-2.23-1.57-1.4-.4-2.95-.88-2.95-2.52v-.03c0-1.54,1.28-2.55,3.04-2.55,1.09,0,2.3,.38,3.21,.99l-.6,1c-.83-.54-1.78-.87-2.64-.87-1.05,0-1.73,.55-1.73,1.29v.03c0,.85,1.11,1.17,2.3,1.54,1.38,.42,2.87,.95,2.87,2.56v.03c0,1.69-1.4,2.68-3.18,2.68-1.28,0-2.7-.5-3.7-1.31h.01Z"/>
        <path class="cls-1" d="M115.73,27.5h1.52v1.47h-1.52v-1.47Zm.09,3.42h1.33v8.93h-1.33v-8.93Z"/>
        <path class="cls-1" d="M119.7,41.4l.6-1.04c1.02,.74,2.16,1.14,3.44,1.14,1.97,0,3.25-1.09,3.25-3.18v-1.05c-.78,1.04-1.86,1.88-3.5,1.88-2.14,0-4.19-1.61-4.19-4.18v-.03c0-2.61,2.07-4.21,4.19-4.21,1.68,0,2.76,.83,3.49,1.8v-1.61h1.33v7.37c0,1.38-.42,2.43-1.14,3.16-.79,.79-1.98,1.19-3.4,1.19s-2.87-.42-4.06-1.24Zm7.32-6.44v-.03c0-1.83-1.59-3.02-3.28-3.02s-3.09,1.17-3.09,3v.03c0,1.8,1.44,3.04,3.09,3.04s3.28-1.23,3.28-3.02Z"/>
        <path class="cls-1" d="M130.84,27.24h1.33v5.23c.59-.97,1.52-1.74,3.05-1.74,2.16,0,3.42,1.45,3.42,3.57v5.54h-1.33v-5.21c0-1.66-.9-2.7-2.47-2.7s-2.68,1.12-2.68,2.8v5.11h-1.33s0-12.61,0-12.61Z"/>
        <path class="cls-1" d="M141.51,37.48v-5.39h-1.24v-1.17h1.24v-2.7h1.33v2.7h2.83v1.17h-2.83v5.21c0,1.09,.6,1.49,1.5,1.49,.45,0,.83-.09,1.29-.31v1.14c-.47,.24-.97,.38-1.61,.38-1.44,0-2.52-.71-2.52-2.52Z"/>
        <path class="cls-1" d="M146.85,38.71l.67-.95c.97,.72,2.04,1.14,3.09,1.14s1.85-.55,1.85-1.42v-.03c0-.9-1.05-1.24-2.23-1.57-1.4-.4-2.95-.88-2.95-2.52v-.03c0-1.54,1.28-2.55,3.04-2.55,1.09,0,2.3,.38,3.21,.99l-.6,1c-.83-.54-1.78-.87-2.64-.87-1.05,0-1.73,.55-1.73,1.29v.03c0,.85,1.11,1.17,2.3,1.54,1.38,.42,2.87,.95,2.87,2.56v.03c0,1.69-1.4,2.68-3.18,2.68-1.28,0-2.7-.5-3.7-1.31h.01Z"/>
        <path class="cls-1" d="M167.55,38.14c-1.11,1.19-2.38,1.88-3.95,1.88-2.18,0-3.8-1.36-3.8-3.38v-.03c0-1.61,1.07-2.76,2.92-3.49-.83-.97-1.21-1.71-1.21-2.66v-.03c0-1.59,1.28-2.87,3.2-2.87,1.69,0,2.93,1.23,2.93,2.73v.03c0,1.54-1.09,2.52-2.85,3.15l2.76,2.82c.54-.78,1.02-1.69,1.45-2.7l1.12,.52c-.54,1.14-1.09,2.18-1.74,3.04l2.11,2.16-1.04,.79-1.9-1.95h0Zm-.83-.85l-3.23-3.33c-1.61,.59-2.31,1.57-2.31,2.59v.03c0,1.29,1.04,2.28,2.52,2.28,1.14,0,2.14-.6,3.02-1.57h0Zm-.36-6.91v-.03c0-.97-.72-1.68-1.71-1.68-1.09,0-1.83,.76-1.83,1.74v.03c0,.71,.3,1.24,1.21,2.23,1.54-.52,2.33-1.26,2.33-2.3Z"/>
        <path class="cls-1" d="M181.54,27.68h1.28l5.51,12.18h-1.47l-1.42-3.2h-6.58l-1.44,3.2h-1.4l5.51-12.18h0Zm3.37,7.76l-2.75-6.17-2.76,6.17h5.51Z"/>
        <path class="cls-1" d="M190.05,30.92h1.33v1.56c.59-.97,1.52-1.74,3.05-1.74,2.16,0,3.42,1.45,3.42,3.57v5.54h-1.33v-5.21c0-1.66-.9-2.7-2.47-2.7s-2.68,1.12-2.68,2.8v5.11h-1.33v-8.93Z"/>
        <path class="cls-1" d="M199.59,37.26v-.03c0-1.88,1.56-2.88,3.82-2.88,1.14,0,1.95,.15,2.75,.38v-.31c0-1.61-.99-2.43-2.66-2.43-1.05,0-1.88,.27-2.71,.66l-.4-1.09c.99-.45,1.95-.74,3.25-.74s2.23,.33,2.88,.99c.6,.6,.92,1.47,.92,2.61v5.46h-1.28v-1.34c-.62,.81-1.66,1.54-3.23,1.54-1.66,0-3.33-.95-3.33-2.78h0Zm6.58-.7v-.87c-.66-.19-1.54-.38-2.63-.38-1.68,0-2.61,.72-2.61,1.85v.03c0,1.12,1.04,1.78,2.25,1.78,1.64,0,2.99-1,2.99-2.42h0Z"/>
        <path class="cls-1" d="M209.95,27.24h1.33v12.61h-1.33s0-12.61,0-12.61Z"/>
        <path class="cls-1" d="M220.62,30.92h1.42l-3.75,9.22c-.76,1.85-1.62,2.52-2.97,2.52-.74,0-1.29-.15-1.9-.45l.45-1.05c.43,.22,.83,.33,1.4,.33,.79,0,1.29-.42,1.83-1.68l-4.06-8.9h1.47l3.25,7.44,2.87-7.44h0Z"/>
        <path class="cls-1" d="M222.62,38.71l.67-.95c.97,.72,2.04,1.14,3.09,1.14s1.85-.55,1.85-1.42v-.03c0-.9-1.05-1.24-2.23-1.57-1.4-.4-2.95-.88-2.95-2.52v-.03c0-1.54,1.28-2.55,3.04-2.55,1.09,0,2.3,.38,3.21,.99l-.6,1c-.83-.54-1.78-.87-2.64-.87-1.05,0-1.73,.55-1.73,1.29v.03c0,.85,1.11,1.17,2.3,1.54,1.38,.42,2.87,.95,2.87,2.56v.03c0,1.69-1.4,2.68-3.18,2.68-1.28,0-2.7-.5-3.7-1.31h.01Z"/>
        <path class="cls-1" d="M231.57,27.5h1.52v1.47h-1.52v-1.47Zm.09,3.42h1.33v8.93h-1.33v-8.93Z"/>
        <path class="cls-1" d="M234.9,38.71l.67-.95c.97,.72,2.04,1.14,3.09,1.14s1.85-.55,1.85-1.42v-.03c0-.9-1.05-1.24-2.23-1.57-1.4-.4-2.95-.88-2.95-2.52v-.03c0-1.54,1.28-2.55,3.04-2.55,1.09,0,2.3,.38,3.21,.99l-.6,1c-.83-.54-1.78-.87-2.64-.87-1.05,0-1.73,.55-1.73,1.29v.03c0,.85,1.11,1.17,2.3,1.54,1.38,.42,2.87,.95,2.87,2.56v.03c0,1.69-1.4,2.68-3.18,2.68-1.28,0-2.7-.5-3.7-1.31h.01Z"/>
      </g>
    </g>
  </g>
</svg>