<?xml version="1.0" encoding="UTF-8"?>
<svg id="b" data-name="Layer 2" xmlns="http://www.w3.org/2000/svg" viewBox="0 0 405.3 80">
  <defs>
    <style>
      .d {
        fill: #bc202e;
      }

      .d, .e, .f {
        stroke-width: 0px;
      }

      .e {
        fill: #fff;
      }

      .f {
        fill: #221f1f;
      }
    </style>
  </defs>
  <g id="c" data-name="Layer 1">
    <g>
      <circle class="f" cx="40" cy="40" r="40"/>
      <g>
        <path class="e" d="M47.5,14.2h23.4v51.8h-13.2V21.6l.2.1-8.2,44.2h-17.7l-8.5-44.3.2-.1v44.4h-13.2V14.2h23.4l7.4,46.4h-1.4c0-.1,7.6-46.4,7.6-46.4Z"/>
        <path class="d" d="M107.6,14.2h23.8v51.8h-13.4V21.7l.2.1-8,44.1h-18l-8.3-44.2.2-.1v44.3h-13.5V14.2h23.8l7.2,46.3h-1.4c.1,0,7.4-46.3,7.4-46.3Z"/>
      </g>
    </g>
    <g>
      <path class="e" d="M162.4,37.3v-14.9l-6.4,9.8h-.1l-6.4-9.7v14.8h-4.9V14.4h5.4l6,9.7,6-9.7h5.4v22.8c0,.1-5,.1-5,.1Z"/>
      <path class="e" d="M187,30.3h-12.2c.5,2.3,2.1,3.4,4.3,3.4,1.7,0,2.9-.5,4.2-1.8l2.8,2.5c-1.6,2-4,3.3-7.1,3.3-5.3,0-9.1-3.7-9.1-9v-.1c0-5,3.6-9.1,8.6-9.1,5.8,0,8.5,4.5,8.5,9.5v.1c.1.4.1.7,0,1.2ZM178.6,23.4c-2.1,0-3.4,1.5-3.8,3.7h7.5c-.3-2.2-1.6-3.7-3.7-3.7Z"/>
      <path class="e" d="M201.8,37.3v-2.5c-1.2,1.6-2.9,2.8-5.5,2.8-4.1,0-8-3.2-8-9v-.1c0-5.8,3.8-9,8-9,2.6,0,4.3,1.2,5.5,2.6v-8.6h5v23.8s-5,0-5,0ZM201.8,28.5c0-2.9-1.9-4.8-4.2-4.8s-4.3,1.9-4.3,4.8v.1c0,2.9,2,4.8,4.3,4.8s4.2-1.9,4.2-4.9h0Z"/>
      <path class="e" d="M209.6,17.9v-4.4h5.2v4.4h-5.2ZM209.8,37.3v-17.5h5v17.5h-5Z"/>
      <path class="e" d="M228,37.3v-1.9c-1.2,1.3-2.9,2.2-5.3,2.2-3.3,0-6-1.9-6-5.4v-.1c0-3.8,2.9-5.6,7.1-5.6,1.8,0,3,.3,4.3.7v-.3c0-2.1-1.3-3.2-3.8-3.2-1.9,0-3.2.4-4.8.9l-1.2-3.8c1.9-.8,3.8-1.4,6.8-1.4,5.4,0,7.8,2.8,7.8,7.5v10.2c-.1.2-4.9.2-4.9.2ZM228.1,30.2c-.8-.4-2-.7-3.2-.7-2.1,0-3.4.8-3.4,2.4v.1c0,1.3,1.1,2.1,2.7,2.1,2.3,0,3.9-1.3,3.9-3.1,0,.1,0-.8,0-.8Z"/>
      <path class="e" d="M262,37.3v-14.9l-6.4,9.8h-.1l-6.4-9.7v14.8h-4.9V14.4h5.4l6,9.7,6-9.7h5.4v22.8h-5v.1Z"/>
      <path class="e" d="M278.9,37.7c-5.4,0-9.4-4-9.4-9v-.1c0-5,4-9.1,9.5-9.1s9.4,4,9.4,9v.1c0,5-4,9.1-9.5,9.1ZM283.5,28.6c0-2.6-1.9-4.8-4.6-4.8s-4.5,2.2-4.5,4.8h0c0,2.6,1.9,4.8,4.6,4.8s4.5-2.2,4.5-4.8h0Z"/>
      <path class="e" d="M301.4,37.3v-9.8c0-2.4-1.1-3.6-3-3.6s-3.1,1.2-3.1,3.6v9.8h-5v-17.5h5v2.5c1.1-1.5,2.6-2.8,5.1-2.8,3.8,0,5.9,2.5,5.9,6.5v11.3h-4.9Z"/>
      <path class="e" d="M309.2,17.9v-4.4h5.2v4.4h-5.2ZM309.3,37.3v-17.5h5v17.5h-5Z"/>
      <path class="e" d="M323.2,37.6c-3,0-5.1-1.2-5.1-5.3v-8.3h-2.1v-4.2h2.1v-4.5h5v4.5h4.1v4.2h-4.1v7.5c0,1.1.5,1.7,1.6,1.7.9,0,1.7-.2,2.4-.6v4c-1,.6-2.2,1-3.9,1Z"/>
      <path class="e" d="M337.3,37.7c-5.4,0-9.4-4-9.4-9v-.1c0-5,4-9.1,9.5-9.1s9.4,4,9.4,9v.1c0,5-4.1,9.1-9.5,9.1ZM341.9,28.6c0-2.6-1.9-4.8-4.6-4.8s-4.5,2.2-4.5,4.8h0c0,2.6,1.9,4.8,4.6,4.8s4.5-2.2,4.5-4.8h0Z"/>
      <path class="e" d="M359,24.6c-3.3,0-5.3,2-5.3,6.2v6.5h-5v-17.5h5v3.5c1-2.4,2.6-4,5.6-3.9v5.2h-.3Z"/>
      <path class="e" d="M360.9,17.9v-4.4h5.2v4.4h-5.2ZM361,37.3v-17.5h5v17.5h-5Z"/>
      <path class="e" d="M380,37.3v-9.8c0-2.4-1.1-3.6-3-3.6s-3.1,1.2-3.1,3.6v9.8h-5v-17.5h5v2.5c1.1-1.5,2.6-2.8,5.1-2.8,3.8,0,5.9,2.5,5.9,6.5v11.3h-4.9Z"/>
      <path class="e" d="M395.5,42.6c-2.8,0-5.5-.7-7.7-1.8l1.7-3.7c1.8,1,3.6,1.6,5.9,1.6,3.4,0,5-1.6,5-4.8v-.8c-1.5,1.8-3.1,2.8-5.7,2.8-4.1,0-7.8-3-7.8-8.2v-.1c0-5.2,3.8-8.2,7.8-8.2,2.7,0,4.3,1.1,5.6,2.6v-2.3h5v13.5c0,6.7-3.3,9.4-9.8,9.4h0ZM400.4,27.6c0-2.4-1.9-4-4.3-4s-4.2,1.7-4.2,4v.1c0,2.4,1.8,4,4.2,4s4.3-1.6,4.3-4.1c0,.1,0,0,0,0Z"/>
      <path class="e" d="M145,44.7h2.4v21.1h-2.4v-21.1Z"/>
      <path class="e" d="M152.5,50.2h2.3v2.7c1-1.7,2.7-3.1,5.3-3.1,3.8,0,6,2.5,6,6.3v9.7h-2.3v-9.1c0-2.9-1.6-4.7-4.3-4.7s-4.7,2-4.7,4.9v8.9h-2.3v-15.6Z"/>
      <path class="e" d="M169,63.8l1.2-1.7c1.7,1.3,3.6,2,5.4,2s3.2-1,3.2-2.5h0c0-1.6-1.8-2.2-3.9-2.7-2.4-.7-5.2-1.5-5.2-4.4v-.1c0-2.7,2.2-4.5,5.3-4.5,1.9,0,4,.7,5.6,1.7l-1.1,1.8c-1.5-.9-3.1-1.5-4.6-1.5-1.8,0-3,1-3,2.3v.1c0,1.5,1.9,2.1,4,2.7,2.4.7,5,1.7,5,4.5v.1c0,3-2.4,4.7-5.6,4.7-2.1-.2-4.5-1-6.3-2.5h0Z"/>
      <path class="e" d="M184.7,44.2h2.7v2.6h-2.7v-2.6ZM184.8,50.2h2.3v15.6h-2.3v-15.6Z"/>
      <path class="e" d="M191.6,68.6l1.1-1.8c1.8,1.3,3.8,2,6,2,3.4,0,5.7-1.9,5.7-5.6v-1.8c-1.4,1.8-3.3,3.3-6.1,3.3-3.7,0-7.3-2.8-7.3-7.3v-.1c0-4.6,3.6-7.4,7.3-7.4,2.9,0,4.8,1.5,6.1,3.1v-2.8h2.3v12.9c0,2.4-.7,4.3-2,5.5-1.4,1.4-3.5,2.1-5.9,2.1-2.7,0-5.1-.7-7.2-2.1h0ZM204.4,57.3h0c0-3.3-2.8-5.3-5.7-5.3s-5.4,2.1-5.4,5.3v.1c0,3.1,2.5,5.3,5.4,5.3s5.7-2.3,5.7-5.4h0Z"/>
      <path class="e" d="M211.1,43.8h2.3v9.1c1-1.7,2.7-3.1,5.3-3.1,3.8,0,6,2.5,6,6.3v9.7h-2.3v-9.1c0-2.9-1.6-4.7-4.3-4.7s-4.7,2-4.7,4.9v8.9h-2.3v-22Z"/>
      <path class="e" d="M229.7,61.7v-9.4h-2.2v-2.1h2.2v-4.7h2.3v4.7h5v2.1h-5v9.1c0,1.9,1.1,2.6,2.6,2.6.8,0,1.5-.2,2.3-.5v2c-.8.4-1.7.7-2.8.7-2.5-.1-4.4-1.3-4.4-4.5h0Z"/>
      <path class="e" d="M239.1,63.8l1.2-1.7c1.7,1.3,3.6,2,5.4,2s3.2-1,3.2-2.5h0c0-1.6-1.8-2.2-3.9-2.7-2.4-.7-5.2-1.5-5.2-4.4v-.1c0-2.7,2.2-4.5,5.3-4.5,1.9,0,4,.7,5.6,1.7l-1.1,1.8c-1.5-.9-3.1-1.5-4.6-1.5-1.8,0-3,1-3,2.3v.1c0,1.5,1.9,2.1,4,2.7,2.4.7,5,1.7,5,4.5v.1c0,3-2.4,4.7-5.6,4.7-2.1-.2-4.6-1-6.3-2.5h0Z"/>
    </g>
  </g>
</svg>