<?xml version="1.0" encoding="UTF-8" standalone="no"?>
<svg
   xmlnsDc="http://purl.org/dc/elements/1.1/"
   xmlnsCc="http://creativecommons.org/ns#"
   xmlnsRdf="http://www.w3.org/1999/02/22-rdf-syntax-ns#"
   xmlnsSvg="http://www.w3.org/2000/svg"
   xmlns="http://www.w3.org/2000/svg"
   id="svg2528"
   version="1.1"
   viewBox="0 0 158.75 95.250003"
   height="360"
   width="600">
  <defs
     id="defs2522" />
  <metadata
     id="metadata2525">
    <rdfRDF>
      <ccWork
         rdfAbout="">
        <dcFormat>image/svg+xml</dcFormat>
        <dcType
           rdfResource="http://purl.org/dc/dcmitype/StillImage" />
        <dcTitle></dcTitle>
      </ccWork>
    </rdfRDF>
  </metadata>
  <g
     id="layer1"
     transform="translate(-17.403093,-58.874722)" />
  <rect
     style="fill:#ffffff;stroke:#000000;stroke-width:0.26458332"
     id="rect816"
     width="158.75"
     height="95.25"
     x="0"
     y="-7.1054274e-15" />
  <path
     transform="scale(0.26458334)"
     style="fill:#000000"
     d="M 36 9 C 21.042 9 9 21.042 9 36 L 9 324 C 9 338.958 21.042 351 36 351 L 564 351 C 578.958 351 591 338.958 591 324 L 591 36 C 591 21.042 578.958 9 564 9 L 36 9 z M 36 27 L 564 27 C 568.986 27 573 31.014 573 36 L 573 324 C 573 328.986 568.986 333 564 333 L 36 333 C 31.014 333 27 328.986 27 324 L 27 36 C 27 31.014 31.014 27 36 27 z "
     id="rect818" />
  <g
     id="text826"
     style="font-weight:bold;font-size:79.25753784px;font-family:'Trafikkalfabetet Pro';-inkscape-font-specification:'Trafikkalfabetet Pro Bold';letter-spacing:0px;word-spacing:0px;text-anchor:middle;fill:#000000;stroke-width:0.26458335px"
     transform="scale(0.99852009,1.0014821)"
     aria-label="500">
    <path
       id="path5712"
       style="-inkscape-font-specification:'Trafikkalfabetet Pro Bold'"
       d="m 19.1566,46.286398 7.212436,1.981438 c 1.822923,-1.030348 3.883619,-1.664408 6.10283,-1.664408 3.962877,0 7.212436,3.170301 7.212436,7.133178 v 3.804362 c 0,3.962877 -3.249559,7.133178 -7.212436,7.133178 -3.725104,0 -7.053921,-1.505893 -9.352389,-4.042134 l -5.627285,5.310255 c 3.725104,3.962877 9.114617,6.499118 14.979674,6.499118 8.242784,0 15.534478,-6.657633 15.534478,-14.900417 v -3.804362 c 0,-8.242784 -7.291694,-14.900417 -15.534478,-14.900417 -1.743665,0 -3.408074,0.237773 -4.993225,0.63406 V 31.544495 H 46.896738 V 23.777257 H 19.1566 Z" />
    <path
       id="path5714"
       style="-inkscape-font-specification:'Trafikkalfabetet Pro Bold'"
       d="m 58.24171,47.554518 c 0,17.119628 7.846496,24.886867 17.436658,24.886867 9.590163,0 17.436659,-7.767239 17.436659,-24.886867 0,-17.119628 -7.846496,-24.886867 -17.436659,-24.886867 -9.590162,0 -17.436658,7.767239 -17.436658,24.886867 z m 8.322042,0 c 0,-9.590162 3.011786,-17.119628 9.114616,-17.119628 6.102831,0 9.114617,7.529466 9.114617,17.119628 0,9.590162 -3.011786,17.119628 -9.114617,17.119628 -6.10283,0 -9.114616,-7.529466 -9.114616,-17.119628 z" />
    <path
       id="path5716"
       style="-inkscape-font-specification:'Trafikkalfabetet Pro Bold'"
       d="m 104.99128,47.554518 c 0,17.119628 7.84649,24.886867 17.43665,24.886867 9.59017,0 17.43666,-7.767239 17.43666,-24.886867 0,-17.119628 -7.84649,-24.886867 -17.43666,-24.886867 -9.59016,0 -17.43665,7.767239 -17.43665,24.886867 z m 8.32204,0 c 0,-9.590162 3.01178,-17.119628 9.11461,-17.119628 6.10283,0 9.11462,7.529466 9.11462,17.119628 0,9.590162 -3.01179,17.119628 -9.11462,17.119628 -6.10283,0 -9.11461,-7.529466 -9.11461,-17.119628 z" />
  </g>
</svg>
