<?xml version="1.0" encoding="UTF-8" standalone="no"?>
<svg
   xmlnsDc="http://purl.org/dc/elements/1.1/"
   xmlnsCc="http://creativecommons.org/ns#"
   xmlnsRdf="http://www.w3.org/1999/02/22-rdf-syntax-ns#"
   xmlnsSvg="http://www.w3.org/2000/svg"
   xmlns="http://www.w3.org/2000/svg"
   width="800"
   height="400"
   viewBox="0 0 211.66666 105.83333"
   version="1.1"
   id="svg2528">
  <defs
     id="defs2522" />
  <metadata
     id="metadata2525">
    <rdfRDF>
      <ccWork
         rdfAbout="">
        <dcFormat>image/svg+xml</dcFormat>
        <dcType
           rdfResource="http://purl.org/dc/dcmitype/StillImage" />
        <dcTitle></dcTitle>
      </ccWork>
    </rdfRDF>
  </metadata>
  <g
     style="stroke-width:0.86355174"
     transform="matrix(1.1578867,0,0,1.1581297,-10.655211,-130.98813)"
     id="layer1" />
  <path
     id="rect1630"
     d="M 0,-8.0744421e-6 H 211.66666 V 105.83334 H 0 Z"
     style="fill:#003f87;stroke-width:0.26458332" />
  <path
     id="rect1632"
     d="m 9.5250002,0.13229255 c -5.2035608,0 -9.39270853,4.18914775 -9.39270853,9.39270865 V 96.308337 c 0,5.203563 4.18914773,9.392703 9.39270853,9.392703 H 202.14166 c 5.20356,0 9.39271,-4.18914 9.39271,-9.392703 V 9.5250012 c 0,-5.2035609 -4.18915,-9.39270865 -9.39271,-9.39270865 z m 0,4.63020845 H 202.14166 c 2.63843,0 4.7625,2.124075 4.7625,4.7625002 V 96.308337 c 0,2.638425 -2.12407,4.762493 -4.7625,4.762493 H 9.5250002 c -2.638425,0 -4.7625001,-2.124068 -4.7625001,-4.762493 V 9.5250012 c 0,-2.6384252 2.1240751,-4.7625002 4.7625001,-4.7625002 z"
     style="fill:#ffffff;stroke-width:0.26458335" />
  <g
     id="text1640"
     style="font-weight:bold;font-size:66.14582825px;font-familyTratexVit;-inkscape-font-specification:'TratexVit Bold';letter-spacing:0px;word-spacing:0px;text-anchor:middle;fill:#ffffff;stroke-width:0.26458335px"
     aria-label="403">
    <path
       id="path8759"
       d="M 67.164889,26.458337 44.47687,57.613023 H 57.970619 V 50.403127 L 67.62791,45.44219 v 12.170833 h 6.879166 v 9.326561 H 67.62791 V 79.375 H 57.970619 V 66.939584 H 31.843017 v -8.40052 L 55.192495,26.458337 Z" />
    <path
       id="path8761"
       d="m 124.02756,32.676045 q -6.01927,-6.879166 -15.47812,-6.879166 h -0.0662 -0.13229 q -9.392706,0 -15.478122,6.879166 Q 85.3984,41.142711 85.3984,52.718231 v 0.330729 q 0,11.641666 7.474478,20.108332 6.085416,6.81302 15.478122,6.81302 h 0.13229 0.0662 q 9.45885,0 15.47812,-6.81302 7.47448,-8.532812 7.47448,-20.108332 v -0.330729 q 0,-11.57552 -7.47448,-20.042186 z m -2.18281,20.372915 q 0,7.9375 -5.02708,13.692187 -3.175,3.571875 -8.26823,3.571875 h -0.0662 -0.13229 q -5.09323,0 -8.20208,-3.571875 Q 95.055691,60.98646 95.055691,53.04896 v -0.330729 q 0,-7.937499 5.093229,-13.692186 3.175,-3.571875 8.20208,-3.571875 h 0.13229 0.0662 q 5.09323,0 8.26823,3.571875 5.02708,5.754687 5.02708,13.692186 z" />
    <path
       id="path8763"
       d="m 155.92432,55.760939 h 8.92969 q 4.49791,0 6.35,4.034896 v 0 q 0.59531,1.322916 0.59531,2.778125 0,1.455208 -0.59531,2.778124 v 0 q -2.11667,3.96875 -6.54844,4.696354 v 0 q -1.91823,0.330729 -3.9026,0.330729 -1.91823,0 -3.83646,-0.330729 v 0 q -4.36563,-1.124479 -7.47448,-4.365624 v 0 l -7.14375,6.217707 q 4.89479,5.820833 12.43542,7.474479 v 0 q 2.97656,0.595312 5.88697,0.595312 2.91042,0 5.95313,-0.595312 v 0 q 8.06979,-1.984375 12.43542,-8.995833 v 0 q 1.91822,-3.704166 1.91822,-7.805207 0,-1.653646 -0.39687,-3.439583 v 0 q -0.79375,-5.027083 -4.63021,-8.400521 v 0 q 3.10886,-4.101041 3.10886,-9.260416 0,-0.661458 0,-0.992187 v 0 q -0.33073,-6.81302 -5.95313,-10.583333 v 0 q -5.42396,-3.902603 -12.10469,-4.034895 v 0 q -9.3927,0 -16.53645,6.217708 v 0 l 6.28385,6.81302 q 4.36563,-3.704166 10.05417,-3.704166 1.52135,0 2.97656,0.330729 v 0 q 3.50573,0.661458 5.29167,3.704166 v 0 q 0.46302,1.058334 0.46302,2.182813 0,1.124479 -0.46302,2.182812 v 0 q -1.32292,3.108854 -4.69636,3.108854 -0.19844,0 -0.26458,0 v 0 h -8.13594 z" />
  </g>
</svg>
