<svg width="16" height="14" viewBox="0 0 16 14" fill="none" xmlns="http://www.w3.org/2000/svg">
<path d="M4.19062 11.6906L0.353124 7.85313C0.128124 7.62813 -5.84093e-07 7.31875 -6.11959e-07 7C-6.39825e-07 6.68125 0.128124 6.37188 0.353124 6.14688L4.19062 2.30938C4.39062 2.10938 4.65937 2 4.94062 2C5.525 2 6 2.475 6 3.05938L6 5L10 5C10.5531 5 11 5.44688 11 6L11 8C11 8.55313 10.5531 9 10 9L6 9L6 10.9406C6 11.525 5.525 12 4.94063 12C4.65938 12 4.39063 11.8875 4.19062 11.6906ZM11 12L13 12C13.5531 12 14 11.5531 14 11L14 3C14 2.44688 13.5531 2 13 2L11 2C10.4469 2 10 1.55313 10 1C10 0.446876 10.4469 4.8547e-07 11 4.37114e-07L13 2.62268e-07C14.6562 1.17474e-07 16 1.34375 16 3L16 11C16 12.6562 14.6562 14 13 14L11 14C10.4469 14 10 13.5531 10 13C10 12.4469 10.4469 12 11 12Z" fill="#BABFD6"/>
</svg>
