<svg width="100" height="26" viewBox="0 0 100 26" fill="none" xmlns="http://www.w3.org/2000/svg">
<rect x="0.5" y="0.5" width="99" height="25" rx="5.5" fill="white"/>
<rect x="0.5" y="0.5" width="99" height="25" rx="5.5" stroke="#04814D"/>
<path d="M24.8829 20.4067H11.3095C10.9609 20.4067 10.6781 20.1239 10.6781 19.7753V6.20193C10.6781 5.85331 10.9609 5.57056 11.3095 5.57056H24.8829C25.2315 5.57056 25.5142 5.85331 25.5142 6.20193V19.7753C25.5142 20.1242 25.2315 20.4067 24.8829 20.4067Z" fill="white"/>
<path d="M24.8828 20.8457H11.3094C10.7193 20.8457 10.239 20.3656 10.239 19.7755V6.2019C10.239 5.6118 10.7193 5.13147 11.3094 5.13147H24.8828C25.4729 5.13147 25.9533 5.6118 25.9533 6.2019V19.7755C25.9533 20.3658 25.4729 20.8457 24.8828 20.8457ZM11.3094 6.00959C11.2034 6.00959 11.1171 6.09587 11.1171 6.2019V19.7755C11.1171 19.8813 11.2034 19.9676 11.3094 19.9676H24.8828C24.9889 19.9676 25.0752 19.8813 25.0752 19.7755V6.2019C25.0752 6.09587 24.9889 6.00959 24.8828 6.00959H11.3094Z" fill="#19754C"/>
<path d="M24.0093 7.60364H20.5122V8.48176H24.0093V7.60364Z" fill="#19754C"/>
<path d="M24.0093 10.0778H20.5122V10.9559H24.0093V10.0778Z" fill="#19754C"/>
<path d="M24.0093 12.5497H20.5122V13.4278H24.0093V12.5497Z" fill="#19754C"/>
<path d="M24.0093 15.0216H20.5122V15.8997H24.0093V15.0216Z" fill="#19754C"/>
<path d="M24.0093 17.4957H20.5122V18.3739H24.0093V17.4957Z" fill="#19754C"/>
<path d="M19.3355 7.60364H15.8384V8.48176H19.3355V7.60364Z" fill="#19754C"/>
<path d="M19.3355 10.0778H15.8384V10.9559H19.3355V10.0778Z" fill="#19754C"/>
<path d="M19.3355 12.5497H15.8384V13.4278H19.3355V12.5497Z" fill="#19754C"/>
<path d="M19.3355 15.0216H15.8384V15.8997H19.3355V15.0216Z" fill="#19754C"/>
<path d="M19.3355 17.4957H15.8384V18.3739H19.3355V17.4957Z" fill="#19754C"/>
<path d="M18.3784 22.8677L8.46436 20.4067V5.57081L18.3784 3.10986V22.8677Z" fill="#19754C"/>
<path d="M15.485 9.30286L13.9176 9.39286L12.9648 11.3906L12.0625 9.49824L10.5785 9.58166L12.203 12.9888L10.5785 16.3959L12.0625 16.4793L12.9648 14.587L13.9176 16.5847L15.485 16.6747L13.7266 12.9888L15.485 9.30286Z" fill="white"/>
<path d="M34.26 17V7.816H36.556C39.384 7.816 40.896 9.454 40.896 12.366C40.896 15.292 39.384 17 36.612 17H34.26ZM35.436 16.034H36.472C38.614 16.034 39.678 14.69 39.678 12.366C39.678 10.056 38.614 8.782 36.472 8.782H35.436V16.034ZM45.421 17.168C43.755 17.168 42.271 15.866 42.271 13.612C42.271 11.33 43.755 10.028 45.421 10.028C47.087 10.028 48.585 11.33 48.585 13.612C48.585 15.866 47.087 17.168 45.421 17.168ZM45.421 16.202C46.597 16.202 47.381 15.166 47.381 13.612C47.381 12.044 46.597 10.994 45.421 10.994C44.259 10.994 43.475 12.044 43.475 13.612C43.475 15.166 44.259 16.202 45.421 16.202ZM51.4002 17L49.4962 10.196H50.6862L51.6802 14.144C51.8342 14.76 51.9742 15.348 52.0862 16.076H52.1422C52.2822 15.348 52.4082 14.76 52.5622 14.144L53.5842 10.196H54.8302L55.8662 14.144C56.0202 14.76 56.1742 15.348 56.3142 16.076H56.3702C56.5102 15.348 56.6222 14.76 56.7762 14.144L57.7702 10.196H58.8762L57.0422 17H55.5722L54.6482 13.346C54.4802 12.716 54.3542 12.128 54.2002 11.33H54.1442C54.0182 12.128 53.8922 12.73 53.7102 13.346L52.8002 17H51.4002ZM60.357 17V10.196H61.309L61.407 11.176H61.449C62.093 10.532 62.793 10.028 63.731 10.028C65.173 10.028 65.817 10.952 65.817 12.688V17H64.655V12.842C64.655 11.568 64.263 11.036 63.367 11.036C62.681 11.036 62.191 11.386 61.519 12.072V17H60.357ZM69.2312 17.168C68.3632 17.168 68.0132 16.608 68.0132 15.628V7.032H69.1752V15.712C69.1752 16.076 69.3292 16.202 69.5112 16.202C69.5812 16.202 69.6372 16.202 69.7492 16.174L69.9032 17.042C69.7352 17.126 69.5252 17.168 69.2312 17.168ZM74.2276 17.168C72.5616 17.168 71.0776 15.866 71.0776 13.612C71.0776 11.33 72.5616 10.028 74.2276 10.028C75.8936 10.028 77.3916 11.33 77.3916 13.612C77.3916 15.866 75.8936 17.168 74.2276 17.168ZM74.2276 16.202C75.4036 16.202 76.1876 15.166 76.1876 13.612C76.1876 12.044 75.4036 10.994 74.2276 10.994C73.0656 10.994 72.2816 12.044 72.2816 13.612C72.2816 15.166 73.0656 16.202 74.2276 16.202ZM80.5461 17.168C79.4121 17.168 78.5581 16.468 78.5581 15.236C78.5581 13.724 79.8181 12.996 82.7301 12.674C82.7161 11.82 82.4361 10.994 81.3301 10.994C80.5461 10.994 79.8321 11.344 79.3001 11.694L78.8521 10.91C79.4821 10.49 80.4341 10.028 81.5261 10.028C83.1781 10.028 83.8921 11.134 83.8921 12.814V17H82.9401L82.8281 16.188H82.7861C82.1421 16.734 81.4001 17.168 80.5461 17.168ZM80.8681 16.216C81.5261 16.216 82.0721 15.922 82.7301 15.348V13.5C80.4341 13.766 79.6921 14.284 79.6921 15.166C79.6921 15.922 80.2101 16.216 80.8681 16.216ZM88.3568 17.168C86.6488 17.168 85.5428 15.88 85.5428 13.612C85.5428 11.4 86.9428 10.028 88.4968 10.028C89.2808 10.028 89.7988 10.322 90.4008 10.812L90.3448 9.65V7.032H91.5068V17H90.5548L90.4568 16.202H90.4148C89.8828 16.72 89.1548 17.168 88.3568 17.168ZM88.6088 16.188C89.2388 16.188 89.7848 15.88 90.3448 15.264V11.708C89.7708 11.19 89.2528 11.008 88.6928 11.008C87.6148 11.008 86.7468 12.044 86.7468 13.598C86.7468 15.222 87.4188 16.188 88.6088 16.188Z" fill="#04814D"/>
</svg>
