<svg width="5" height="14" viewBox="0 0 5 14" fill="none" xmlns="http://www.w3.org/2000/svg">
<path id="Primary" d="M2.19558 10.0054C1.6957 10.0054 1.2163 10.1897 0.862832 10.5179C0.509366 10.8461 0.310791 11.2912 0.310791 11.7554C0.310791 12.2195 0.509366 12.6646 0.862832 12.9928C1.2163 13.321 1.6957 13.5054 2.19558 13.5054C2.69545 13.5054 3.17485 13.321 3.52832 12.9928C3.88179 12.6646 4.08036 12.2195 4.08036 11.7554C4.08036 11.2912 3.88179 10.8461 3.52832 10.5179C3.17485 10.1897 2.69545 10.0054 2.19558 10.0054ZM2.19558 5.00537C1.6957 5.00537 1.2163 5.18975 0.862832 5.51793C0.509366 5.84612 0.310791 6.29124 0.310791 6.75537C0.310791 7.2195 0.509366 7.66462 0.862832 7.99281C1.2163 8.321 1.6957 8.50537 2.19558 8.50537C2.69545 8.50537 3.17485 8.321 3.52832 7.99281C3.88179 7.66462 4.08036 7.2195 4.08036 6.75537C4.08036 6.29124 3.88179 5.84612 3.52832 5.51793C3.17485 5.18975 2.69545 5.00537 2.19558 5.00537ZM4.08036 1.75537C4.08036 1.29124 3.88179 0.846123 3.52832 0.517934C3.17485 0.189746 2.69545 0.00537109 2.19558 0.00537109C1.6957 0.00537109 1.2163 0.189746 0.862832 0.517934C0.509366 0.846123 0.310791 1.29124 0.310791 1.75537C0.310791 2.2195 0.509366 2.66462 0.862832 2.99281C1.2163 3.321 1.6957 3.50537 2.19558 3.50537C2.69545 3.50537 3.17485 3.321 3.52832 2.99281C3.88179 2.66462 4.08036 2.2195 4.08036 1.75537Z" fill="#847379"/>
</svg>
