<?xml version="1.0" encoding="UTF-8"?>
<svg id="a" data-name="Layer 1" xmlns="http://www.w3.org/2000/svg" viewBox="0 0 391.28 155.03">
  <defs>
    <style>
      .b {
        fill: #fdb913;
      }

      .b, .c {
        stroke-width: 0px;
      }

      .c {
        fill: #043673;
      }
    </style>
  </defs>
  <g>
    <path class="b" d="M10.31,145.12c17.22,1.12,34.58.84,51.71-.51,53.79-4.28,106.18-18.63,158.5-31.82,53.05-13.36,108.67-26.27,163.88-25.42v21.63c-54.49-3.45-110.05,6.36-163.14,16.76-8.27,1.62-16.55,3.27-24.83,4.9-3.13.62-6.27,1.23-9.4,1.84-.18.04-.36.08-.54.11-4.71.92-9.43,1.83-14.15,2.71-1.92.37-3.84.73-5.76,1.08-2.92.54-5.83,1.07-8.75,1.59-.41.08-.81.15-1.21.22-2.93.52-5.87,1.03-8.81,1.53-1.64.28-3.28.55-4.91.82-1.28.22-2.56.42-3.84.63-2.08.33-4.16.66-6.25.98-1.47.23-2.94.45-4.42.66-3.59.54-7.18,1.04-10.77,1.52-1.26.17-2.52.33-3.78.49-.24.03-.47.06-.71.09-1.04.13-2.07.26-3.11.38-1.04.13-2.08.26-3.13.38-.19.02-.38.05-.58.06-1.51.18-3.03.35-4.55.51-2.19.24-4.39.47-6.59.67-.81.09-1.62.16-2.44.24-.87.08-1.75.16-2.63.23-1.02.09-2.04.18-3.07.26-.44.04-.89.07-1.34.1-.96.08-1.93.16-2.9.22-1.35.1-2.71.19-4.07.28-1.65.11-3.31.21-4.96.29-1.66.09-3.31.17-4.97.24-1.65.08-3.3.14-4.95.19,0,0-.01.01-.02,0-.84.03-1.69.06-2.53.08-6.49.17-13.01.17-19.54.01-1.05-.02-2.11-.05-3.16-.09h-.02c-.74-.03-1.47-.05-2.21-.08-.6-.03-1.19-.05-1.79-.08-.92-.04-1.85-.08-2.77-.13-2.62-.14-5.23-.31-7.84-.5-.49-.04-.99-.07-1.48-.12-1.07-.08-2.15-.17-3.22-.27-1.07-.09-2.14-.19-3.21-.3-.95-.09-1.89-.19-2.84-.29-.12,0-.25-.02-.37-.04l-2.53-2.05Z"/>
    <path class="c" d="M36.36,148.9c.74.03,1.47.05,2.21.08h-19.28c-2.36,0-4.57-.66-6.45-1.81.12.02.25.03.37.04.95.1,1.89.2,2.84.29,1.07.11,2.14.21,3.21.3,1.07.1,2.15.19,3.22.27.49.05.99.08,1.48.12,2.61.19,5.22.36,7.84.5.92.05,1.85.09,2.77.13.6.03,1.19.05,1.79.08Z"/>
    <path class="c" d="M384.4,109v27.57c0,6.85-5.55,12.41-12.41,12.41H63.84c1.65-.05,3.3-.11,4.95-.19,1.66-.06,3.32-.14,4.97-.24,1.65-.08,3.31-.18,4.96-.29,1.36-.08,2.71-.17,4.07-.28.97-.06,1.94-.14,2.9-.22.45-.03.9-.06,1.34-.1,1.03-.08,2.05-.17,3.07-.26.88-.07,1.76-.15,2.63-.23.82-.08,1.63-.15,2.44-.24,2.2-.2,4.4-.43,6.59-.67,1.52-.16,3.04-.33,4.55-.51.2-.01.39-.04.58-.06,1.05-.12,2.09-.25,3.13-.38,1.04-.12,2.07-.25,3.11-.38.24-.03.47-.06.71-.09,1.26-.16,2.52-.32,3.78-.49,3.59-.48,7.18-.98,10.77-1.52,1.48-.21,2.95-.43,4.42-.66,2.09-.32,4.17-.65,6.25-.98,1.28-.21,2.56-.41,3.84-.63,1.63-.27,3.27-.54,4.91-.82,2.94-.49,5.87-1.01,8.81-1.53.4-.07.8-.14,1.21-.22,2.92-.51,5.84-1.05,8.75-1.59,1.92-.35,3.84-.71,5.76-1.08,4.72-.88,9.44-1.79,14.15-2.71.18-.03.36-.07.54-.11,3.13-.61,6.27-1.22,9.4-1.84,8.28-1.63,16.56-3.28,24.83-4.9,53.09-10.4,108.65-20.21,163.14-16.76Z"/>
  </g>
  <g>
    <path class="c" d="M100.89,52.78c0-10.47-.2-12.15-6.03-12.64l-2.47-.2c-.59-.39-.4-2.17.2-2.47,4.94.2,8.3.3,12.45.3s7.31-.1,12.25-.3c.59.3.79,2.07.2,2.47l-2.47.2c-5.83.49-6.02,2.17-6.02,12.64v35.16c0,10.47.2,11.85,6.02,12.54l2.47.3c.59.39.39,2.17-.2,2.47-4.94-.2-8.3-.3-12.25-.3-4.15,0-7.51.1-12.45.3-.59-.3-.79-1.88-.2-2.47l2.47-.3c5.83-.69,6.03-2.07,6.03-12.54v-35.16Z"/>
    <path class="c" d="M134.27,50.61c0-6.91-.49-8.99-4.64-9.58l-2.17-.3c-.79-.49-.89-2.07.1-2.47,8.4-.49,16.4-.79,24.79-.79s15.31.59,21.73,2.96c13.33,4.84,20.05,16.1,20.05,29.14s-6.02,23.31-17.28,29.43c-6.42,3.46-14.52,4.74-22.12,4.74-6.32,0-12.64-.79-16.1-.79-4.15,0-7.7.1-12.35.3-.59-.3-.79-1.88-.2-2.47l2.27-.3c5.73-.79,5.93-1.97,5.93-12.35v-37.53ZM142.37,85.87c0,5.23.3,8.4,1.97,10.77,2.17,3.06,5.93,4.05,12.15,4.05,19.16,0,27.75-12.54,27.75-30.92,0-10.87-5.23-29.24-31.11-29.24-5.83,0-8.99.79-9.78,1.38s-.99,3.06-.99,7.51v36.45Z"/>
    <path class="c" d="M211.31,52.78c0-10.47-.2-12.15-6.03-12.64l-2.47-.2c-.59-.39-.4-2.17.2-2.47,4.94.2,8.3.3,12.45.3s7.31-.1,12.25-.3c.59.3.79,2.07.2,2.47l-2.47.2c-5.83.49-6.02,2.17-6.02,12.64v35.16c0,10.47.2,11.85,6.02,12.54l2.47.3c.59.39.39,2.17-.2,2.47-4.94-.2-8.3-.3-12.25-.3-4.15,0-7.51.1-12.45.3-.59-.3-.79-1.88-.2-2.47l2.47-.3c5.83-.69,6.03-2.07,6.03-12.54v-35.16Z"/>
    <path class="c" d="M244.7,52.68c0-9.38-.3-11.06-4.35-11.56l-3.16-.4c-.69-.49-.69-2.07.1-2.47,5.53-.49,12.35-.79,22.03-.79,6.12,0,11.95.49,16.49,2.96,4.74,2.47,8.2,6.91,8.2,13.83,0,9.38-7.41,14.52-12.35,16.49-.49.59,0,1.58.49,2.37,7.9,12.74,13.14,20.64,19.85,26.27,1.68,1.48,4.15,2.57,6.82,2.77.49.2.59.99.1,1.38-.89.3-2.47.49-4.35.49-8.4,0-13.43-2.47-20.45-12.45-2.57-3.65-6.62-10.47-9.68-14.91-1.48-2.17-3.06-3.16-7.01-3.16-4.44,0-4.64.1-4.64,2.17v12.45c0,10.37.2,11.56,5.93,12.35l2.07.3c.59.49.39,2.17-.2,2.47-4.45-.2-7.8-.3-11.75-.3-4.15,0-7.7.1-12.35.3-.59-.3-.79-1.78-.2-2.47l2.47-.3c5.73-.69,5.93-1.97,5.93-12.35v-35.46ZM252.8,66.81c0,1.78,0,2.86.3,3.26.3.3,1.78.49,6.82.49,3.56,0,7.31-.4,10.17-2.57,2.67-2.07,4.94-5.53,4.94-12.25,0-7.8-4.84-15.21-15.8-15.21-6.12,0-6.42.4-6.42,3.16v23.11Z"/>
  </g>
  <path class="c" d="M63.45,149.97h-.01s-44.14-.01-44.14-.01c-2.46,0-4.87-.68-6.96-1.95-1.01-.61-1.93-1.36-2.73-2.21-2.38-2.48-3.69-5.75-3.69-9.22V18.43c0-7.37,6-13.37,13.38-13.37h352.7c7.38,0,13.38,6,13.38,13.37v118.14c0,7.38-6,13.38-13.38,13.38H63.45ZM64.21,148.01h307.78c6.31,0,11.44-5.13,11.44-11.44V18.43c0-6.3-5.13-11.43-11.44-11.43H19.29c-6.31,0-11.44,5.13-11.44,11.43v118.14c0,2.96,1.12,5.75,3.16,7.88.69.74,1.47,1.37,2.33,1.89,1.79,1.09,3.84,1.67,5.95,1.67h44.92Z"/>
</svg>