<?xml version="1.0" encoding="UTF-8"?>
<svg id="a" xmlns="http://www.w3.org/2000/svg" viewBox="0 0 376.54 144.42">
  <defs>
    <style>
      .b {
        fill: #043673;
      }

      .c {
        fill: #fdb913;
      }
    </style>
  </defs>
  <path class="c" d="M-4.43,140.56c17.54,1.14,35.22.86,52.66-.52,54.78-4.36,108.13-18.97,161.42-32.41,54.03-13.61,110.67-26.75,166.89-25.89v22.03c-55.49-3.51-112.07,6.48-166.14,17.07-8.42,1.65-16.85,3.33-25.29,4.99-3.19.63-6.39,1.25-9.57,1.87-.18.04-.37.08-.55.11-4.8.94-9.6,1.86-14.41,2.76-1.96.38-3.91.74-5.87,1.1-2.97.55-5.94,1.09-8.91,1.62-.42.08-.82.15-1.23.22-2.98.53-5.98,1.05-8.97,1.56-1.67.29-3.34.56-5,.84-1.3.22-2.61.43-3.91.64-2.12.34-4.24.67-6.36,1-1.5.23-2.99.46-4.5.67-3.66.55-7.31,1.06-10.97,1.55-1.28.17-2.57.34-3.85.5-.24.03-.48.06-.72.09-1.06.13-2.11.26-3.17.39-1.06.13-2.12.26-3.19.39-.19.02-.39.05-.59.06-1.54.18-3.09.36-4.63.52-2.23.24-4.47.48-6.71.68-.82.09-1.65.16-2.48.24-.89.08-1.78.16-2.68.23-1.04.09-2.08.18-3.13.26-.45.04-.91.07-1.36.1-.98.08-1.97.16-2.95.22-1.37.1-2.76.19-4.14.29-1.68.11-3.37.21-5.05.3-1.69.09-3.37.17-5.06.24-1.68.08-3.36.14-5.04.19,0,0-.01.01-.02,0-.86.03-1.72.06-2.58.08-6.61.17-13.25.17-19.9.01-1.07-.02-2.15-.05-3.22-.09h-.02c-.75-.03-1.5-.05-2.25-.08-.61-.03-1.21-.05-1.82-.08-.94-.04-1.88-.08-2.82-.13-2.67-.14-5.33-.32-7.98-.51-.5-.04-1.01-.07-1.51-.12-1.09-.08-2.19-.17-3.28-.27-1.09-.09-2.18-.19-3.27-.31-.97-.09-1.92-.19-2.89-.3-.12,0-.25-.02-.38-.04l-2.58-2.09h0Z"/>
  <path class="b" d="M22.1,144.41c.75.03,1.5.05,2.25.08l-18.39,1.25c-4.72,1.9-8.72.65-7.82-3.09.12.02.25.03.38.04.97.1,1.92.2,2.89.3,1.09.11,2.18.21,3.27.31,1.09.1,2.19.19,3.28.27.5.05,1.01.08,1.51.12,2.66.19,5.32.37,7.98.51.94.05,1.88.09,2.82.13.61.03,1.21.05,1.82.08Z"/>
  <path class="b" d="M376.54,103.77v28.08c0,4.57,0,12.64,0,12.64,0,0-8.09.02-12.64,0H50.09c1.68-.05,3.36-.11,5.04-.19,1.69-.06,3.38-.14,5.06-.24,1.68-.08,3.37-.18,5.05-.3,1.39-.08,2.76-.17,4.14-.29.99-.06,1.98-.14,2.95-.22.55-.04,1.1-.07,1.63-.13.98-.1,1.97-.17,2.95-.25.87-.07,1.73-.15,2.59-.23.84-.08,1.66-.15,2.48-.24,2.24-.2,4.48-.44,6.71-.68,1.55-.16,3.1-.34,4.63-.52.2-.01.4-.04.59-.06,1.07-.12,2.13-.25,3.19-.39,1.06-.12,2.11-.25,3.17-.39.24-.03.48-.06.72-.09,1.28-.16,2.57-.33,3.85-.5,3.66-.49,7.31-1,10.97-1.55,1.51-.21,3-.44,4.5-.67,2.13-.33,4.25-.66,6.36-1,1.3-.21,2.61-.42,3.91-.64,1.66-.27,3.33-.55,5-.84,2.99-.5,5.98-1.03,8.97-1.56.41-.07.81-.14,1.23-.22,2.97-.52,5.95-1.07,8.91-1.62,1.96-.36,3.91-.72,5.87-1.1,4.81-.9,9.61-1.82,14.41-2.76.18-.03.37-.07.55-.11,3.19-.62,6.39-1.24,9.57-1.87,8.43-1.66,16.86-3.34,25.29-4.99,54.07-10.59,110.65-20.58,166.14-17.07h0Z"/>
  <g>
    <path class="b" d="M87.82,46.52c0-10.66-.2-12.37-6.14-12.87l-2.52-.2c-.6-.4-.41-2.21.2-2.52,5.03.2,8.45.31,12.68.31s7.44-.1,12.48-.31c.6.31.8,2.11.2,2.52l-2.52.2c-5.94.5-6.13,2.21-6.13,12.87v35.81c0,10.66.2,12.07,6.13,12.77l2.52.31c.6.4.4,2.21-.2,2.52-5.03-.2-8.45-.31-12.48-.31-4.23,0-7.65.1-12.68.31-.6-.31-.8-1.91-.2-2.52l2.52-.31c5.94-.7,6.14-2.11,6.14-12.77v-35.81Z"/>
    <path class="b" d="M121.81,44.31c0-7.04-.5-9.16-4.73-9.76l-2.21-.31c-.8-.5-.91-2.11.1-2.52,8.55-.5,16.7-.8,25.25-.8s15.59.6,22.13,3.01c13.58,4.93,20.42,16.4,20.42,29.68s-6.13,23.74-17.6,29.97c-6.54,3.52-14.79,4.83-22.53,4.83-6.44,0-12.87-.8-16.4-.8-4.23,0-7.84.1-12.58.31-.6-.31-.8-1.91-.2-2.52l2.31-.31c5.84-.8,6.04-2.01,6.04-12.58v-38.22h-.01ZM130.06,80.22c0,5.33.31,8.55,2.01,10.97,2.21,3.12,6.04,4.12,12.37,4.12,19.51,0,28.26-12.77,28.26-31.49,0-11.07-5.33-29.78-31.68-29.78-5.94,0-9.16.8-9.96,1.41s-1.01,3.12-1.01,7.65v37.12h.01Z"/>
    <path class="b" d="M200.27,46.52c0-10.66-.2-12.37-6.14-12.87l-2.52-.2c-.6-.4-.41-2.21.2-2.52,5.03.2,8.45.31,12.68.31s7.44-.1,12.48-.31c.6.31.8,2.11.2,2.52l-2.52.2c-5.94.5-6.13,2.21-6.13,12.87v35.81c0,10.66.2,12.07,6.13,12.77l2.52.31c.6.4.4,2.21-.2,2.52-5.03-.2-8.45-.31-12.48-.31-4.23,0-7.65.1-12.68.31-.6-.31-.8-1.91-.2-2.52l2.52-.31c5.94-.7,6.14-2.11,6.14-12.77v-35.81Z"/>
    <path class="b" d="M234.27,46.42c0-9.55-.31-11.26-4.43-11.77l-3.22-.41c-.7-.5-.7-2.11.1-2.52,5.63-.5,12.58-.8,22.44-.8,6.23,0,12.17.5,16.79,3.01,4.83,2.52,8.35,7.04,8.35,14.08,0,9.55-7.55,14.79-12.58,16.79-.5.6,0,1.61.5,2.41,8.05,12.97,13.38,21.02,20.22,26.75,1.71,1.51,4.23,2.62,6.95,2.82.5.2.6,1.01.1,1.41-.91.31-2.52.5-4.43.5-8.55,0-13.68-2.52-20.83-12.68-2.62-3.72-6.74-10.66-9.86-15.18-1.51-2.21-3.12-3.22-7.14-3.22-4.52,0-4.73.1-4.73,2.21v12.68c0,10.56.2,11.77,6.04,12.58l2.11.31c.6.5.4,2.21-.2,2.52-4.53-.2-7.94-.31-11.97-.31-4.23,0-7.84.1-12.58.31-.6-.31-.8-1.81-.2-2.52l2.52-.31c5.84-.7,6.04-2.01,6.04-12.58v-36.11.02ZM242.52,60.81c0,1.81,0,2.91.31,3.32.31.31,1.81.5,6.95.5,3.63,0,7.44-.41,10.36-2.62,2.72-2.11,5.03-5.63,5.03-12.48,0-7.94-4.93-15.49-16.09-15.49-6.23,0-6.54.41-6.54,3.22v23.54h-.01Z"/>
  </g>
</svg>