<svg width="26" height="26" viewBox="0 0 26 26" fill="none" xmlns="http://www.w3.org/2000/svg">
<g clip-path="url(#clip0_1789_15431)">
<path d="M23.5625 13C23.5625 7.16625 18.8337 2.4375 13 2.4375C7.16625 2.4375 2.4375 7.16625 2.4375 13C2.4375 18.8337 7.16625 23.5625 13 23.5625C18.8337 23.5625 23.5625 18.8337 23.5625 13ZM0 13C0 5.8175 5.8175 0 13 0C20.1825 0 26 5.8175 26 13C26 20.1825 20.1825 26 13 26C5.8175 26 0 20.1825 0 13ZM9.555 7.475C9.945 7.26375 10.4162 7.26375 10.79 7.5075L18.1025 11.9762C18.46 12.2037 18.6875 12.5938 18.6875 13.0163C18.6875 13.4388 18.46 13.8287 18.1025 14.0562L10.79 18.525C10.4162 18.7525 9.945 18.7688 9.555 18.5575C9.165 18.3463 8.9375 17.94 8.9375 17.5013V8.5475C8.9375 8.10875 9.18125 7.7025 9.555 7.49125V7.475Z" fill="#BF202F"/>
</g>
<defs>
<clipPath id="clip0_1789_15431">
<rect width="26" height="26" fill="white"/>
</clipPath>
</defs>
</svg>
