<svg width="26" height="26" viewBox="0 0 26 26" fill="none" xmlns="http://www.w3.org/2000/svg">
<g clip-path="url(#clip0_1789_15430)">
<path d="M20.9143 13C20.9143 8.645 17.3718 5.11875 13.0006 5.11875C8.62935 5.11875 5.08685 8.645 5.08685 13C5.08685 17.355 8.62935 20.8812 13.0006 20.8812C17.3718 20.8812 20.9143 17.355 20.9143 13ZM3.26685 13C3.26685 7.6375 7.62185 3.29875 13.0006 3.29875C18.3793 3.29875 22.7343 7.6375 22.7343 13C22.7343 18.3625 18.3793 22.7012 13.0006 22.7012C7.62185 22.7012 3.26685 18.3625 3.26685 13ZM10.4331 8.8725C10.7256 8.71 11.0668 8.71 11.3593 8.88875L16.8356 12.22C17.1118 12.3825 17.2743 12.675 17.2743 13C17.2743 13.325 17.1118 13.6175 16.8356 13.78L11.3593 17.1112C11.0831 17.2737 10.7256 17.29 10.4331 17.1275C10.1406 16.965 9.96185 16.6725 9.96185 16.3312V9.6525C9.96185 9.3275 10.1406 9.01875 10.4331 8.85625V8.8725Z" fill="#6750A4"/>
<path d="M26.0003 8.2225V0.975C26.0003 0.43875 25.5615 0 25.009 0H17.729C17.1928 0 16.7378 0.43875 16.7378 0.975C16.7378 1.51125 17.1765 1.95 17.729 1.95H24.0178V8.2225C24.0178 8.75875 24.4565 9.1975 25.009 9.1975C25.5615 9.1975 26.0003 8.75875 26.0003 8.2225Z" fill="#6750A4"/>
<path d="M17.7456 26H25.0256C25.5619 26 26.0169 25.5612 26.0169 25.025V17.7775C26.0169 17.2412 25.5781 16.8025 25.0256 16.8025C24.4731 16.8025 24.0344 17.2412 24.0344 17.7775V24.05H17.7456C17.2094 24.05 16.7544 24.4887 16.7544 25.025C16.7544 25.5612 17.1931 26 17.7456 26Z" fill="#6750A4"/>
<path d="M8.25524 0H0.991494C0.455244 0 0.000244141 0.43875 0.000244141 0.975V8.2225C0.000244141 8.75875 0.438994 9.1975 0.991494 9.1975C1.54399 9.1975 1.98274 8.75875 1.98274 8.2225V1.96625H8.27149C8.80774 1.96625 9.26274 1.5275 9.26274 0.99125C9.26274 0.455 8.82399 0.01625 8.27149 0.01625L8.25524 0Z" fill="#6750A4"/>
<path d="M0.000625001 17.7775V25.025C0.000625001 25.5612 0.439375 26 0.991875 26H8.27188C8.80813 26 9.26313 25.5612 9.26313 25.025C9.26313 24.4887 8.82438 24.05 8.27188 24.05H1.96688V17.7775C1.96688 17.2412 1.52813 16.8025 0.975625 16.8025C0.423125 16.8025 -0.015625 17.2412 -0.015625 17.7775H0.000625001Z" fill="#6750A4"/>
</g>
<defs>
<clipPath id="clip0_1789_15430">
<rect width="26" height="26" fill="white"/>
</clipPath>
</defs>
</svg>
