<?xml version="1.0"?>
<svg  viewBox="0 0 420.29 80" xmlns="http://www.w3.org/2000/svg" xmlns:svg="http://www.w3.org/2000/svg" data-name="Layer 2">
 <defs>
  <style>.cls-1 {
        fill: #fff;
      }

      .cls-2 {
        fill: #bc202e;
      }

      .cls-3 {
        fill: #221f1f;
      }</style>
 </defs>
 <g class="layer">
  <title>Layer 1</title>
  <g id="svg_41">
   <g id="svg_2">
    <circle class="cls-3" cx="40" cy="40" id="svg_3" r="40"/>
    <g id="svg_4">
     <path class="cls-1" d="m47.49,14.2l23.4,0l0,51.75l-13.19,0l0,-44.31l0.24,0.14l-8.21,44.17l-17.72,0l-8.45,-44.28l0.24,-0.11l0,44.38l-13.22,0l0,-51.74l23.4,0l7.4,46.38l-1.4,0l7.51,-46.38z" id="svg_5"/>
     <path class="cls-2" d="m107.64,14.2l23.82,0l0,51.75l-13.44,0l0,-44.2l0.25,0.14l-8.04,44.07l-18.03,0l-8.28,-44.17l0.25,-0.14l0,44.31l-13.47,0l0,-51.76l23.82,0l7.23,46.35l-1.44,0s7.33,-46.35 7.33,-46.35z" id="svg_6"/>
    </g>
   </g>
   <g id="svg_40">
    <path class="cls-3" d="m176.56,37.4l0,-14.97l-6.45,9.79l-0.13,0l-6.39,-9.7l0,14.87l-4.95,0l0,-22.92l5.44,0l6.03,9.7l6.03,-9.7l5.44,0l0,22.93l-5.02,0z" id="svg_8"/>
    <path class="cls-3" d="m201.23,30.36l-12.22,0c0.49,2.26 2.06,3.44 4.29,3.44c1.67,0 2.88,-0.52 4.26,-1.8l2.85,2.52c-1.64,2.03 -4,3.28 -7.17,3.28c-5.27,0 -9.17,-3.7 -9.17,-9.07l0,-0.06c0,-5.01 3.57,-9.14 8.68,-9.14c5.86,0 8.55,4.55 8.55,9.53l0,0.07c0,0.49 -0.03,0.79 -0.07,1.24l0,0l0,-0.01zm-8.48,-6.85c-2.06,0 -3.41,1.47 -3.8,3.73l7.5,0c-0.29,-2.23 -1.6,-3.73 -3.7,-3.73z" id="svg_9"/>
    <path class="cls-3" d="m216.03,37.4l0,-2.52c-1.21,1.64 -2.88,2.85 -5.47,2.85c-4.1,0 -7.99,-3.21 -7.99,-9.07l0,-0.07c0,-5.86 3.83,-9.07 7.99,-9.07c2.65,0 4.29,1.21 5.47,2.62l0,-8.65l4.98,0l0,23.91l-4.98,0zm0.07,-8.81c0,-2.92 -1.93,-4.85 -4.26,-4.85s-4.29,1.9 -4.29,4.85l0,0.07c0,2.91 1.97,4.85 4.29,4.85s4.26,-1.93 4.26,-4.85l0,-0.07z" id="svg_10"/>
    <path class="cls-3" d="m223.93,17.91l0,-4.42l5.24,0l0,4.42l-5.24,0zm0.13,19.49l0,-17.56l4.98,0l0,17.56l-4.98,0z" id="svg_11"/>
    <path class="cls-3" d="m242.37,37.4l0,-1.9c-1.21,1.34 -2.88,2.23 -5.31,2.23c-3.31,0 -6.03,-1.9 -6.03,-5.37l0,-0.07c0,-3.83 2.92,-5.6 7.08,-5.6c1.77,0 3.05,0.3 4.29,0.72l0,-0.29c0,-2.06 -1.28,-3.21 -3.77,-3.21c-1.9,0 -3.24,0.36 -4.85,0.95l-1.24,-3.8c1.93,-0.85 3.83,-1.41 6.81,-1.41c5.44,0 7.83,2.82 7.83,7.57l0,10.19l-4.81,0l0,0l0,-0.01zm0.1,-7.08c-0.85,-0.39 -1.97,-0.66 -3.18,-0.66c-2.13,0 -3.44,0.85 -3.44,2.42l0,0.07c0,1.34 1.11,2.13 2.72,2.13c2.33,0 3.9,-1.28 3.9,-3.08l0,-0.88z" id="svg_12"/>
    <path class="cls-3" d="m276.47,37.4l0,-14.97l-6.45,9.79l-0.13,0l-6.39,-9.7l0,14.87l-4.95,0l0,-22.92l5.44,0l6.03,9.7l6.03,-9.7l5.44,0l0,22.93l-5.02,0z" id="svg_13"/>
    <path class="cls-3" d="m293.45,37.79c-5.44,0 -9.47,-4.03 -9.47,-9.07l0,-0.06c0,-5.04 4.06,-9.14 9.53,-9.14s9.47,4.03 9.47,9.07l0,0.07c0,5.04 -4.06,9.14 -9.53,9.14l0,0l0,-0.01zm4.62,-9.14c0,-2.59 -1.87,-4.85 -4.62,-4.85s-4.55,2.19 -4.55,4.78l0,0.07c0,2.59 1.87,4.85 4.62,4.85s4.55,-2.19 4.55,-4.78l0,-0.06l0,0l0,-0.01z" id="svg_14"/>
    <path class="cls-3" d="m316.05,37.4l0,-9.79c0,-2.36 -1.11,-3.57 -3.01,-3.57s-3.11,1.21 -3.11,3.57l0,9.79l-4.98,0l0,-17.56l4.98,0l0,2.49c1.15,-1.47 2.62,-2.82 5.14,-2.82c3.77,0 5.96,2.49 5.96,6.52l0,11.37l-4.98,0z" id="svg_15"/>
    <path class="cls-3" d="m323.81,17.91l0,-4.42l5.24,0l0,4.42l-5.24,0zm0.13,19.49l0,-17.56l4.98,0l0,17.56l-4.98,0z" id="svg_16"/>
    <path class="cls-3" d="m337.9,37.7c-3.05,0 -5.11,-1.21 -5.11,-5.27l0,-8.32l-2.1,0l0,-4.26l2.1,0l0,-4.49l4.98,0l0,4.49l4.13,0l0,4.26l-4.13,0l0,7.5c0,1.15 0.49,1.7 1.6,1.7c0.92,0 1.74,-0.23 2.46,-0.62l0,4c-1.05,0.62 -2.26,1.02 -3.93,1.02l0,0l0,-0.01z" id="svg_17"/>
    <path class="cls-3" d="m352.05,37.79c-5.44,0 -9.47,-4.03 -9.47,-9.07l0,-0.06c0,-5.04 4.06,-9.14 9.53,-9.14s9.47,4.03 9.47,9.07l0,0.07c0,5.04 -4.06,9.14 -9.53,9.14l0,0l0,-0.01zm4.62,-9.14c0,-2.59 -1.87,-4.85 -4.62,-4.85s-4.55,2.19 -4.55,4.78l0,0.07c0,2.59 1.87,4.85 4.62,4.85s4.55,-2.19 4.55,-4.78l0,-0.06l0,0l0,-0.01z" id="svg_18"/>
    <path class="cls-3" d="m373.87,24.73c-3.31,0 -5.34,2 -5.34,6.19l0,6.49l-4.98,0l0,-17.57l4.98,0l0,3.54c1.01,-2.42 2.65,-4 5.6,-3.86l0,5.21l-0.26,0z" id="svg_19"/>
    <path class="cls-3" d="m375.71,17.91l0,-4.42l5.24,0l0,4.42l-5.24,0zm0.13,19.49l0,-17.56l4.98,0l0,17.56l-4.98,0z" id="svg_20"/>
    <path class="cls-3" d="m394.97,37.4l0,-9.79c0,-2.36 -1.11,-3.57 -3.01,-3.57s-3.11,1.21 -3.11,3.57l0,9.79l-4.98,0l0,-17.56l4.98,0l0,2.49c1.15,-1.47 2.62,-2.82 5.14,-2.82c3.77,0 5.96,2.49 5.96,6.52l0,11.37l-4.98,0z" id="svg_21"/>
    <path class="cls-3" d="m410.5,42.71c-2.85,0 -5.54,-0.66 -7.76,-1.83l1.7,-3.73c1.8,1.02 3.6,1.61 5.93,1.61c3.41,0 5.01,-1.64 5.01,-4.78l0,-0.85c-1.47,1.77 -3.08,2.85 -5.73,2.85c-4.09,0 -7.8,-2.98 -7.8,-8.19l0,-0.07c0,-5.24 3.77,-8.19 7.8,-8.19c2.72,0 4.32,1.15 5.67,2.62l0,-2.29l4.98,0l0,13.59c0,6.62 -3.28,9.27 -9.79,9.27l-0.01,0l0,-0.01zm4.88,-15c0,-2.39 -1.87,-4.06 -4.29,-4.06s-4.26,1.67 -4.26,4.06l0,0.07c0,2.42 1.83,4.06 4.26,4.06s4.29,-1.67 4.29,-4.06l0,-0.07z" id="svg_22"/>
    <path class="cls-3" d="m159.1,44.85l2.39,0l0,21.21l-2.39,0l0,-21.21z" id="svg_23"/>
    <path class="cls-3" d="m166.56,50.4l2.33,0l0,2.73c1.03,-1.7 2.67,-3.06 5.36,-3.06c3.79,0 6,2.55 6,6.27l0,9.73l-2.33,0l0,-9.15c0,-2.91 -1.58,-4.73 -4.33,-4.73s-4.7,1.97 -4.7,4.91l0,8.97l-2.33,0l0,-15.67z" id="svg_24"/>
    <path class="cls-3" d="m183.16,64.07l1.18,-1.67c1.7,1.27 3.58,2 5.42,2s3.24,-0.97 3.24,-2.49l0,-0.06c0,-1.58 -1.85,-2.18 -3.91,-2.76c-2.45,-0.7 -5.18,-1.55 -5.18,-4.42l0,-0.06c0,-2.7 2.24,-4.48 5.33,-4.48c1.91,0 4.03,0.67 5.64,1.73l-1.06,1.76c-1.45,-0.94 -3.12,-1.52 -4.64,-1.52c-1.85,0 -3.03,0.97 -3.03,2.27l0,0.06c0,1.49 1.94,2.06 4.03,2.7c2.42,0.73 5.03,1.67 5.03,4.49l0,0.06c0,2.97 -2.45,4.7 -5.58,4.7c-2.24,0 -4.73,-0.88 -6.49,-2.3l0.02,0l0,-0.01z" id="svg_25"/>
    <path class="cls-3" d="m198.86,44.4l2.67,0l0,2.58l-2.67,0l0,-2.58zm0.15,6l2.33,0l0,15.67l-2.33,0l0,-15.67z" id="svg_26"/>
    <path class="cls-3" d="m205.83,68.79l1.06,-1.82c1.79,1.3 3.79,2 6.03,2c3.45,0 5.7,-1.91 5.7,-5.58l0,-1.85c-1.36,1.82 -3.27,3.3 -6.15,3.3c-3.76,0 -7.36,-2.82 -7.36,-7.33l0,-0.06c0,-4.58 3.64,-7.39 7.36,-7.39c2.94,0 4.85,1.45 6.12,3.15l0,-2.82l2.33,0l0,12.94c0,2.42 -0.73,4.27 -2,5.55c-1.39,1.39 -3.48,2.09 -5.97,2.09s-5.03,-0.73 -7.12,-2.18zm12.85,-11.3l0,-0.06c0,-3.21 -2.79,-5.3 -5.76,-5.3s-5.43,2.06 -5.43,5.27l0,0.06c0,3.15 2.52,5.33 5.43,5.33s5.76,-2.15 5.76,-5.3z" id="svg_27"/>
    <path class="cls-3" d="m225.37,43.94l2.33,0l0,9.18c1.03,-1.7 2.67,-3.06 5.36,-3.06c3.79,0 6,2.55 6,6.27l0,9.73l-2.33,0l0,-9.15c0,-2.91 -1.58,-4.73 -4.33,-4.73s-4.7,1.97 -4.7,4.91l0,8.97l-2.33,0s0,-22.12 0,-22.12z" id="svg_28"/>
    <path class="cls-3" d="m244.1,61.91l0,-9.46l-2.18,0l0,-2.06l2.18,0l0,-4.73l2.33,0l0,4.73l4.97,0l0,2.06l-4.97,0l0,9.15c0,1.91 1.06,2.61 2.64,2.61c0.79,0 1.45,-0.15 2.27,-0.55l0,2c-0.82,0.42 -1.7,0.67 -2.82,0.67c-2.52,0 -4.42,-1.24 -4.42,-4.42z" id="svg_29"/>
    <path class="cls-3" d="m253.46,64.07l1.18,-1.67c1.7,1.27 3.58,2 5.42,2s3.24,-0.97 3.24,-2.49l0,-0.06c0,-1.58 -1.85,-2.18 -3.91,-2.76c-2.45,-0.7 -5.18,-1.55 -5.18,-4.42l0,-0.06c0,-2.7 2.24,-4.48 5.33,-4.48c1.91,0 4.03,0.67 5.64,1.73l-1.06,1.76c-1.45,-0.94 -3.12,-1.52 -4.64,-1.52c-1.85,0 -3.03,0.97 -3.03,2.27l0,0.06c0,1.49 1.94,2.06 4.03,2.7c2.42,0.73 5.03,1.67 5.03,4.49l0,0.06c0,2.97 -2.45,4.7 -5.58,4.7c-2.24,0 -4.73,-0.88 -6.49,-2.3l0.02,0l0,-0.01z" id="svg_30"/>
   </g>
  </g>
 </g>
</svg>