<?xml version="1.0" encoding="UTF-8"?>
<svg id="Layer_2" data-name="Layer 2" xmlns="http://www.w3.org/2000/svg" viewBox="0 0 420.29 80">
  <defs>
    <style>
      .cls-1 {
        fill: #fff;
      }

      .cls-2 {
        fill: #bc202e;
      }

      .cls-3 {
        fill: #221f1f;
      }
    </style>
  </defs>
  <g id="Layer_1-2" data-name="Layer 1-2">
    <g>
      <g>
        <circle class="cls-3" cx="40" cy="40" r="40"/>
        <g>
          <path class="cls-1" d="m47.49,14.2h23.4v51.75h-13.19V21.64l.24.14-8.21,44.17h-17.72l-8.45-44.28.24-.11v44.38h-13.22V14.2h23.4l7.4,46.38h-1.4l7.51-46.38Z"/>
          <path class="cls-2" d="m107.64,14.2h23.82v51.75h-13.44V21.75l.25.14-8.04,44.07h-18.03l-8.28-44.17.25-.14v44.31h-13.47V14.2h23.82l7.23,46.35h-1.44s7.33-46.35,7.33-46.35Z"/>
        </g>
      </g>
      <g>
        <path class="cls-3" d="m176.56,37.4v-14.97l-6.45,9.79h-.13l-6.39-9.7v14.87h-4.95V14.47h5.44l6.03,9.7,6.03-9.7h5.44v22.93h-5.02Z"/>
        <path class="cls-3" d="m201.23,30.36h-12.22c.49,2.26,2.06,3.44,4.29,3.44,1.67,0,2.88-.52,4.26-1.8l2.85,2.52c-1.64,2.03-4,3.28-7.17,3.28-5.27,0-9.17-3.7-9.17-9.07v-.06c0-5.01,3.57-9.14,8.68-9.14,5.86,0,8.55,4.55,8.55,9.53v.07c0,.49-.03.79-.07,1.24h0Zm-8.48-6.85c-2.06,0-3.41,1.47-3.8,3.73h7.5c-.29-2.23-1.6-3.73-3.7-3.73Z"/>
        <path class="cls-3" d="m216.03,37.4v-2.52c-1.21,1.64-2.88,2.85-5.47,2.85-4.1,0-7.99-3.21-7.99-9.07v-.07c0-5.86,3.83-9.07,7.99-9.07,2.65,0,4.29,1.21,5.47,2.62v-8.65h4.98v23.91h-4.98Zm.07-8.81c0-2.92-1.93-4.85-4.26-4.85s-4.29,1.9-4.29,4.85v.07c0,2.91,1.97,4.85,4.29,4.85s4.26-1.93,4.26-4.85v-.07Z"/>
        <path class="cls-3" d="m223.93,17.91v-4.42h5.24v4.42h-5.24Zm.13,19.49v-17.56h4.98v17.56h-4.98Z"/>
        <path class="cls-3" d="m242.37,37.4v-1.9c-1.21,1.34-2.88,2.23-5.31,2.23-3.31,0-6.03-1.9-6.03-5.37v-.07c0-3.83,2.92-5.6,7.08-5.6,1.77,0,3.05.3,4.29.72v-.29c0-2.06-1.28-3.21-3.77-3.21-1.9,0-3.24.36-4.85.95l-1.24-3.8c1.93-.85,3.83-1.41,6.81-1.41,5.44,0,7.83,2.82,7.83,7.57v10.19h-4.81,0Zm.1-7.08c-.85-.39-1.97-.66-3.18-.66-2.13,0-3.44.85-3.44,2.42v.07c0,1.34,1.11,2.13,2.72,2.13,2.33,0,3.9-1.28,3.9-3.08v-.88Z"/>
        <path class="cls-3" d="m276.47,37.4v-14.97l-6.45,9.79h-.13l-6.39-9.7v14.87h-4.95V14.47h5.44l6.03,9.7,6.03-9.7h5.44v22.93h-5.02Z"/>
        <path class="cls-3" d="m293.45,37.79c-5.44,0-9.47-4.03-9.47-9.07v-.06c0-5.04,4.06-9.14,9.53-9.14s9.47,4.03,9.47,9.07v.07c0,5.04-4.06,9.14-9.53,9.14h0Zm4.62-9.14c0-2.59-1.87-4.85-4.62-4.85s-4.55,2.19-4.55,4.78v.07c0,2.59,1.87,4.85,4.62,4.85s4.55-2.19,4.55-4.78v-.06h0Z"/>
        <path class="cls-3" d="m316.05,37.4v-9.79c0-2.36-1.11-3.57-3.01-3.57s-3.11,1.21-3.11,3.57v9.79h-4.98v-17.56h4.98v2.49c1.15-1.47,2.62-2.82,5.14-2.82,3.77,0,5.96,2.49,5.96,6.52v11.37h-4.98Z"/>
        <path class="cls-3" d="m323.81,17.91v-4.42h5.24v4.42h-5.24Zm.13,19.49v-17.56h4.98v17.56h-4.98Z"/>
        <path class="cls-3" d="m337.9,37.7c-3.05,0-5.11-1.21-5.11-5.27v-8.32h-2.1v-4.26h2.1v-4.49h4.98v4.49h4.13v4.26h-4.13v7.5c0,1.15.49,1.7,1.6,1.7.92,0,1.74-.23,2.46-.62v4c-1.05.62-2.26,1.02-3.93,1.02h0Z"/>
        <path class="cls-3" d="m352.05,37.79c-5.44,0-9.47-4.03-9.47-9.07v-.06c0-5.04,4.06-9.14,9.53-9.14s9.47,4.03,9.47,9.07v.07c0,5.04-4.06,9.14-9.53,9.14h0Zm4.62-9.14c0-2.59-1.87-4.85-4.62-4.85s-4.55,2.19-4.55,4.78v.07c0,2.59,1.87,4.85,4.62,4.85s4.55-2.19,4.55-4.78v-.06h0Z"/>
        <path class="cls-3" d="m373.87,24.73c-3.31,0-5.34,2-5.34,6.19v6.49h-4.98v-17.57h4.98v3.54c1.01-2.42,2.65-4,5.6-3.86v5.21h-.26Z"/>
        <path class="cls-3" d="m375.71,17.91v-4.42h5.24v4.42h-5.24Zm.13,19.49v-17.56h4.98v17.56h-4.98Z"/>
        <path class="cls-3" d="m394.97,37.4v-9.79c0-2.36-1.11-3.57-3.01-3.57s-3.11,1.21-3.11,3.57v9.79h-4.98v-17.56h4.98v2.49c1.15-1.47,2.62-2.82,5.14-2.82,3.77,0,5.96,2.49,5.96,6.52v11.37h-4.98Z"/>
        <path class="cls-3" d="m410.5,42.71c-2.85,0-5.54-.66-7.76-1.83l1.7-3.73c1.8,1.02,3.6,1.61,5.93,1.61,3.41,0,5.01-1.64,5.01-4.78v-.85c-1.47,1.77-3.08,2.85-5.73,2.85-4.09,0-7.8-2.98-7.8-8.19v-.07c0-5.24,3.77-8.19,7.8-8.19,2.72,0,4.32,1.15,5.67,2.62v-2.29h4.98v13.59c0,6.62-3.28,9.27-9.79,9.27h-.01Zm4.88-15c0-2.39-1.87-4.06-4.29-4.06s-4.26,1.67-4.26,4.06v.07c0,2.42,1.83,4.06,4.26,4.06s4.29-1.67,4.29-4.06v-.07Z"/>
        <path class="cls-3" d="m159.1,44.85h2.39v21.21h-2.39v-21.21Z"/>
        <path class="cls-3" d="m166.56,50.4h2.33v2.73c1.03-1.7,2.67-3.06,5.36-3.06,3.79,0,6,2.55,6,6.27v9.73h-2.33v-9.15c0-2.91-1.58-4.73-4.33-4.73s-4.7,1.97-4.7,4.91v8.97h-2.33v-15.67Z"/>
        <path class="cls-3" d="m183.16,64.07l1.18-1.67c1.7,1.27,3.58,2,5.42,2s3.24-.97,3.24-2.49v-.06c0-1.58-1.85-2.18-3.91-2.76-2.45-.7-5.18-1.55-5.18-4.42v-.06c0-2.7,2.24-4.48,5.33-4.48,1.91,0,4.03.67,5.64,1.73l-1.06,1.76c-1.45-.94-3.12-1.52-4.64-1.52-1.85,0-3.03.97-3.03,2.27v.06c0,1.49,1.94,2.06,4.03,2.7,2.42.73,5.03,1.67,5.03,4.49v.06c0,2.97-2.45,4.7-5.58,4.7-2.24,0-4.73-.88-6.49-2.3h.02Z"/>
        <path class="cls-3" d="m198.86,44.4h2.67v2.58h-2.67v-2.58Zm.15,6h2.33v15.67h-2.33v-15.67Z"/>
        <path class="cls-3" d="m205.83,68.79l1.06-1.82c1.79,1.3,3.79,2,6.03,2,3.45,0,5.7-1.91,5.7-5.58v-1.85c-1.36,1.82-3.27,3.3-6.15,3.3-3.76,0-7.36-2.82-7.36-7.33v-.06c0-4.58,3.64-7.39,7.36-7.39,2.94,0,4.85,1.45,6.12,3.15v-2.82h2.33v12.94c0,2.42-.73,4.27-2,5.55-1.39,1.39-3.48,2.09-5.97,2.09s-5.03-.73-7.12-2.18Zm12.85-11.3v-.06c0-3.21-2.79-5.3-5.76-5.3s-5.43,2.06-5.43,5.27v.06c0,3.15,2.52,5.33,5.43,5.33s5.76-2.15,5.76-5.3Z"/>
        <path class="cls-3" d="m225.37,43.94h2.33v9.18c1.03-1.7,2.67-3.06,5.36-3.06,3.79,0,6,2.55,6,6.27v9.73h-2.33v-9.15c0-2.91-1.58-4.73-4.33-4.73s-4.7,1.97-4.7,4.91v8.97h-2.33s0-22.12,0-22.12Z"/>
        <path class="cls-3" d="m244.1,61.91v-9.46h-2.18v-2.06h2.18v-4.73h2.33v4.73h4.97v2.06h-4.97v9.15c0,1.91,1.06,2.61,2.64,2.61.79,0,1.45-.15,2.27-.55v2c-.82.42-1.7.67-2.82.67-2.52,0-4.42-1.24-4.42-4.42Z"/>
        <path class="cls-3" d="m253.46,64.07l1.18-1.67c1.7,1.27,3.58,2,5.42,2s3.24-.97,3.24-2.49v-.06c0-1.58-1.85-2.18-3.91-2.76-2.45-.7-5.18-1.55-5.18-4.42v-.06c0-2.7,2.24-4.48,5.33-4.48,1.91,0,4.03.67,5.64,1.73l-1.06,1.76c-1.45-.94-3.12-1.52-4.64-1.52-1.85,0-3.03.97-3.03,2.27v.06c0,1.49,1.94,2.06,4.03,2.7,2.42.73,5.03,1.67,5.03,4.49v.06c0,2.97-2.45,4.7-5.58,4.7-2.24,0-4.73-.88-6.49-2.3h.02Z"/>
        <path class="cls-3" d="m289.8,63.07c-1.94,2.09-4.18,3.3-6.94,3.3-3.82,0-6.67-2.39-6.67-5.94v-.06c0-2.82,1.88-4.85,5.12-6.12-1.45-1.7-2.12-3-2.12-4.67v-.06c0-2.79,2.24-5.03,5.61-5.03,2.97,0,5.15,2.15,5.15,4.79v.06c0,2.7-1.91,4.42-5,5.52l4.85,4.94c.94-1.36,1.79-2.97,2.55-4.73l1.97.91c-.94,2-1.91,3.82-3.06,5.33l3.7,3.79-1.82,1.39-3.33-3.42h0Zm-1.45-1.49l-5.67-5.85c-2.82,1.03-4.06,2.76-4.06,4.55v.06c0,2.27,1.82,4,4.42,4,2,0,3.76-1.06,5.3-2.76h.01Zm-.64-12.12v-.06c0-1.7-1.27-2.94-3-2.94-1.91,0-3.21,1.33-3.21,3.06v.06c0,1.24.52,2.18,2.12,3.91,2.7-.91,4.09-2.21,4.09-4.03Z"/>
        <path class="cls-3" d="m314.34,44.7h2.24l9.67,21.37h-2.58l-2.49-5.61h-11.55l-2.52,5.61h-2.45l9.67-21.37h0Zm5.91,13.61l-4.82-10.82-4.85,10.82h9.67Z"/>
        <path class="cls-3" d="m329.28,50.4h2.33v2.73c1.03-1.7,2.67-3.06,5.36-3.06,3.79,0,6,2.55,6,6.27v9.73h-2.33v-9.15c0-2.91-1.58-4.73-4.33-4.73s-4.7,1.97-4.7,4.91v8.97h-2.33v-15.67Z"/>
        <path class="cls-3" d="m346.01,61.52v-.06c0-3.3,2.73-5.06,6.7-5.06,2,0,3.42.27,4.82.67v-.55c0-2.82-1.73-4.27-4.67-4.27-1.85,0-3.3.48-4.76,1.15l-.7-1.91c1.73-.79,3.42-1.3,5.7-1.3s3.91.58,5.06,1.73c1.06,1.06,1.61,2.58,1.61,4.58v9.58h-2.24v-2.36c-1.09,1.42-2.91,2.7-5.67,2.7-2.91,0-5.85-1.67-5.85-4.88v-.02Zm11.55-1.21v-1.52c-1.15-.33-2.7-.67-4.61-.67-2.94,0-4.58,1.27-4.58,3.24v.06c0,1.97,1.82,3.12,3.94,3.12,2.88,0,5.24-1.76,5.24-4.24h0Z"/>
        <path class="cls-3" d="m364.19,43.94h2.33v22.12h-2.33s0-22.12,0-22.12Z"/>
        <path class="cls-3" d="m382.92,50.4h2.49l-6.58,16.18c-1.33,3.24-2.85,4.42-5.21,4.42-1.3,0-2.27-.27-3.33-.79l.79-1.85c.76.39,1.45.58,2.45.58,1.39,0,2.27-.73,3.21-2.94l-7.12-15.61h2.58l5.7,13.06,5.03-13.06h-.01Z"/>
        <path class="cls-3" d="m386.43,64.07l1.18-1.67c1.7,1.27,3.58,2,5.42,2s3.24-.97,3.24-2.49v-.06c0-1.58-1.85-2.18-3.91-2.76-2.45-.7-5.18-1.55-5.18-4.42v-.06c0-2.7,2.24-4.48,5.33-4.48,1.91,0,4.03.67,5.64,1.73l-1.06,1.76c-1.45-.94-3.12-1.52-4.64-1.52-1.85,0-3.03.97-3.03,2.27v.06c0,1.49,1.94,2.06,4.03,2.7,2.42.73,5.03,1.67,5.03,4.49v.06c0,2.97-2.45,4.7-5.58,4.7-2.24,0-4.73-.88-6.49-2.3h.02Z"/>
        <path class="cls-3" d="m402.13,44.4h2.67v2.58h-2.67v-2.58Zm.15,6h2.33v15.67h-2.33v-15.67Z"/>
        <path class="cls-3" d="m407.98,64.07l1.18-1.67c1.7,1.27,3.58,2,5.42,2s3.24-.97,3.24-2.49v-.06c0-1.58-1.85-2.18-3.91-2.76-2.45-.7-5.18-1.55-5.18-4.42v-.06c0-2.7,2.24-4.48,5.33-4.48,1.91,0,4.03.67,5.64,1.73l-1.06,1.76c-1.45-.94-3.12-1.52-4.64-1.52-1.85,0-3.03.97-3.03,2.27v.06c0,1.49,1.94,2.06,4.03,2.7,2.42.73,5.03,1.67,5.03,4.49v.06c0,2.97-2.45,4.7-5.58,4.7-2.24,0-4.73-.88-6.49-2.3h.02Z"/>
      </g>
    </g>
  </g>
</svg>