<?xml version="1.0"?>
<svg viewBox="0 0 244.39 50" xmlns="http://www.w3.org/2000/svg" xmlns:svg="http://www.w3.org/2000/svg" data-name="Layer 2">
 <defs>
  <style>.cls-1 {
        fill: #fff;
      }

      .cls-2 {
        fill: #bc202e;
      }

      .cls-3 {
        fill: #221f1f;
      }</style>
 </defs>
 <g class="layer">
  <title>Layer 1</title>
  <g id="svg_41">
   <g id="svg_2">
    <circle class="cls-3" cx="25.2" cy="25" id="svg_3" r="22.79"/>
    <g id="svg_4">
     <path class="cls-1" d="m29.47,10.29l13.33,0l0,29.49l-7.52,0l0,-25.25l0.14,0.08l-4.68,25.17l-10.1,0l-4.8,-25.23l0.14,-0.06l0,25.29l-7.53,0l0,-29.49l13.33,0l4.22,26.43l-0.8,0s4.28,-26.43 4.28,-26.43l-0.01,0z" id="svg_5"/>
     <path class="cls-2" d="m63.75,10.29l13.57,0l0,29.49l-7.66,0l0,-25.18l0.14,0.08l-4.58,25.11l-10.27,0l-4.72,-25.17l0.14,-0.08l0,25.25l-7.68,0l0,-29.5l13.57,0l4.12,26.41l-0.82,0s4.18,-26.41 4.18,-26.41l0.01,0z" id="svg_6"/>
    </g>
   </g>
   <g id="svg_40">
    <path class="cls-1" d="m103.02,23.52l0,-8.54l-3.68,5.58l-0.07,0l-3.64,-5.53l0,8.47l-2.82,0l0,-13.05l3.1,0l3.44,5.53l3.44,-5.53l3.1,0l0,13.07l-2.86,0l-0.01,0z" id="svg_8"/>
    <path class="cls-1" d="m117.08,19.5l-6.96,0c0.28,1.29 1.17,1.96 2.44,1.96c0.95,0 1.64,-0.3 2.43,-1.03l1.62,1.44c-0.93,1.16 -2.28,1.87 -4.09,1.87c-3,0 -5.23,-2.11 -5.23,-5.17l0,-0.03c0,-2.85 2.03,-5.21 4.95,-5.21c3.34,0 4.87,2.59 4.87,5.43l0,0.04c0,0.28 -0.02,0.45 -0.04,0.71l0,0l0.01,-0.01zm-4.83,-3.91c-1.17,0 -1.94,0.84 -2.17,2.13l4.27,0c-0.17,-1.27 -0.91,-2.13 -2.11,-2.13l0.01,0z" id="svg_9"/>
    <path class="cls-1" d="m125.52,23.52l0,-1.44c-0.69,0.93 -1.64,1.62 -3.12,1.62c-2.34,0 -4.55,-1.83 -4.55,-5.17l0,-0.04c0,-3.34 2.18,-5.17 4.55,-5.17c1.51,0 2.44,0.69 3.12,1.49l0,-4.93l2.84,0l0,13.63l-2.84,0l0,0.01zm0.04,-5.02c0,-1.66 -1.1,-2.76 -2.43,-2.76s-2.44,1.08 -2.44,2.76l0,0.04c0,1.66 1.12,2.76 2.44,2.76s2.43,-1.1 2.43,-2.76c0,0 0,-0.04 0,-0.04z" id="svg_10"/>
    <path class="cls-1" d="m130.02,12.41l0,-2.52l2.99,0l0,2.52l-2.99,0zm0.07,11.11l0,-10.01l2.84,0l0,10.01l-2.84,0z" id="svg_11"/>
    <path class="cls-1" d="m140.53,23.52l0,-1.08c-0.69,0.76 -1.64,1.27 -3.03,1.27c-1.89,0 -3.44,-1.08 -3.44,-3.06l0,-0.04c0,-2.18 1.66,-3.19 4.03,-3.19c1.01,0 1.74,0.17 2.44,0.41l0,-0.17c0,-1.17 -0.73,-1.83 -2.15,-1.83c-1.08,0 -1.85,0.21 -2.76,0.54l-0.71,-2.17c1.1,-0.48 2.18,-0.8 3.88,-0.8c3.1,0 4.46,1.61 4.46,4.31l0,5.81l-2.74,0l0.02,0zm0.06,-4.04c-0.48,-0.22 -1.12,-0.38 -1.81,-0.38c-1.21,0 -1.96,0.48 -1.96,1.38l0,0.04c0,0.76 0.63,1.21 1.55,1.21c1.33,0 2.22,-0.73 2.22,-1.76l0,-0.5l0,0.01z" id="svg_12"/>
    <path class="cls-1" d="m159.96,23.52l0,-8.54l-3.68,5.58l-0.07,0l-3.64,-5.53l0,8.47l-2.82,0l0,-13.05l3.1,0l3.44,5.53l3.44,-5.53l3.1,0l0,13.07l-2.86,0l-0.01,0z" id="svg_13"/>
    <path class="cls-1" d="m169.63,23.74c-3.1,0 -5.4,-2.3 -5.4,-5.17l0,-0.03c0,-2.87 2.31,-5.21 5.43,-5.21s5.4,2.3 5.4,5.17l0,0.04c0,2.87 -2.31,5.21 -5.43,5.21l0,0l0,-0.01zm2.63,-5.21c0,-1.48 -1.07,-2.76 -2.63,-2.76s-2.59,1.25 -2.59,2.72l0,0.04c0,1.48 1.07,2.76 2.63,2.76s2.59,-1.25 2.59,-2.72l0,-0.03l0,0l0,-0.01z" id="svg_14"/>
    <path class="cls-1" d="m182.51,23.52l0,-5.58c0,-1.34 -0.63,-2.03 -1.72,-2.03s-1.77,0.69 -1.77,2.03l0,5.58l-2.84,0l0,-10.01l2.84,0l0,1.42c0.66,-0.84 1.49,-1.61 2.93,-1.61c2.15,0 3.4,1.42 3.4,3.72l0,6.48l-2.84,0z" id="svg_15"/>
    <path class="cls-1" d="m186.93,12.41l0,-2.52l2.99,0l0,2.52l-2.99,0zm0.07,11.11l0,-10.01l2.84,0l0,10.01l-2.84,0z" id="svg_16"/>
    <path class="cls-1" d="m194.96,23.69c-1.74,0 -2.91,-0.69 -2.91,-3l0,-4.74l-1.2,0l0,-2.43l1.2,0l0,-2.56l2.84,0l0,2.56l2.35,0l0,2.43l-2.35,0l0,4.27c0,0.66 0.28,0.97 0.91,0.97c0.52,0 0.99,-0.13 1.4,-0.35l0,2.28c-0.6,0.35 -1.29,0.58 -2.24,0.58l0,0l0,-0.01z" id="svg_17"/>
    <path class="cls-1" d="m203.03,23.74c-3.1,0 -5.4,-2.3 -5.4,-5.17l0,-0.03c0,-2.87 2.31,-5.21 5.43,-5.21s5.4,2.3 5.4,5.17l0,0.04c0,2.87 -2.31,5.21 -5.43,5.21l0,0l0,-0.01zm2.63,-5.21c0,-1.48 -1.07,-2.76 -2.63,-2.76s-2.59,1.25 -2.59,2.72l0,0.04c0,1.48 1.07,2.76 2.63,2.76s2.59,-1.25 2.59,-2.72l0,-0.03l0,0l0,-0.01z" id="svg_18"/>
    <path class="cls-1" d="m215.46,16.3c-1.89,0 -3.04,1.14 -3.04,3.53l0,3.7l-2.84,0l0,-10.02l2.84,0l0,2.02c0.58,-1.38 1.51,-2.28 3.19,-2.2l0,2.97l-0.15,0z" id="svg_19"/>
    <path class="cls-1" d="m216.51,12.41l0,-2.52l2.99,0l0,2.52l-2.99,0zm0.07,11.11l0,-10.01l2.84,0l0,10.01l-2.84,0z" id="svg_20"/>
    <path class="cls-1" d="m227.49,23.52l0,-5.58c0,-1.34 -0.63,-2.03 -1.72,-2.03s-1.77,0.69 -1.77,2.03l0,5.58l-2.84,0l0,-10.01l2.84,0l0,1.42c0.66,-0.84 1.49,-1.61 2.93,-1.61c2.15,0 3.4,1.42 3.4,3.72l0,6.48l-2.84,0z" id="svg_21"/>
    <path class="cls-1" d="m236.34,26.54c-1.62,0 -3.16,-0.38 -4.42,-1.04l0.97,-2.13c1.03,0.58 2.05,0.92 3.38,0.92c1.94,0 2.85,-0.93 2.85,-2.72l0,-0.48c-0.84,1.01 -1.76,1.62 -3.27,1.62c-2.33,0 -4.44,-1.7 -4.44,-4.67l0,-0.04c0,-2.99 2.15,-4.67 4.44,-4.67c1.55,0 2.46,0.66 3.23,1.49l0,-1.3l2.84,0l0,7.74c0,3.77 -1.87,5.28 -5.58,5.28l0,0zm2.78,-8.55c0,-1.36 -1.07,-2.31 -2.44,-2.31s-2.43,0.95 -2.43,2.31l0,0.04c0,1.38 1.04,2.31 2.43,2.31s2.44,-0.95 2.44,-2.31l0,-0.04z" id="svg_22"/>
    <path class="cls-1" d="m93.07,27.76l1.36,0l0,12.09l-1.36,0l0,-12.09z" id="svg_23"/>
    <path class="cls-1" d="m97.32,30.92l1.33,0l0,1.56c0.59,-0.97 1.52,-1.74 3.05,-1.74c2.16,0 3.42,1.45 3.42,3.57l0,5.54l-1.33,0l0,-5.21c0,-1.66 -0.9,-2.7 -2.47,-2.7s-2.68,1.12 -2.68,2.8l0,5.11l-1.33,0l0,-8.93l0.01,0z" id="svg_24"/>
    <path class="cls-1" d="m106.78,38.71l0.67,-0.95c0.97,0.72 2.04,1.14 3.09,1.14s1.85,-0.55 1.85,-1.42l0,-0.03c0,-0.9 -1.05,-1.24 -2.23,-1.57c-1.4,-0.4 -2.95,-0.88 -2.95,-2.52l0,-0.03c0,-1.54 1.28,-2.55 3.04,-2.55c1.09,0 2.3,0.38 3.21,0.99l-0.6,1c-0.83,-0.54 -1.78,-0.87 -2.64,-0.87c-1.05,0 -1.73,0.55 -1.73,1.29l0,0.03c0,0.85 1.11,1.17 2.3,1.54c1.38,0.42 2.87,0.95 2.87,2.56l0,0.03c0,1.69 -1.4,2.68 -3.18,2.68c-1.28,0 -2.7,-0.5 -3.7,-1.31l0.01,0l-0.01,-0.01z" id="svg_25"/>
    <path class="cls-1" d="m115.73,27.5l1.52,0l0,1.47l-1.52,0l0,-1.47zm0.09,3.42l1.33,0l0,8.93l-1.33,0l0,-8.93z" id="svg_26"/>
    <path class="cls-1" d="m119.7,41.4l0.6,-1.04c1.02,0.74 2.16,1.14 3.44,1.14c1.97,0 3.25,-1.09 3.25,-3.18l0,-1.05c-0.78,1.04 -1.86,1.88 -3.5,1.88c-2.14,0 -4.19,-1.61 -4.19,-4.18l0,-0.03c0,-2.61 2.07,-4.21 4.19,-4.21c1.68,0 2.76,0.83 3.49,1.8l0,-1.61l1.33,0l0,7.37c0,1.38 -0.42,2.43 -1.14,3.16c-0.79,0.79 -1.98,1.19 -3.4,1.19s-2.87,-0.42 -4.06,-1.24l-0.01,0zm7.32,-6.44l0,-0.03c0,-1.83 -1.59,-3.02 -3.28,-3.02s-3.09,1.17 -3.09,3l0,0.03c0,1.8 1.44,3.04 3.09,3.04s3.28,-1.23 3.28,-3.02z" id="svg_27"/>
    <path class="cls-1" d="m130.84,27.24l1.33,0l0,5.23c0.59,-0.97 1.52,-1.74 3.05,-1.74c2.16,0 3.42,1.45 3.42,3.57l0,5.54l-1.33,0l0,-5.21c0,-1.66 -0.9,-2.7 -2.47,-2.7s-2.68,1.12 -2.68,2.8l0,5.11l-1.33,0s0,-12.61 0,-12.61l0.01,0.01z" id="svg_28"/>
    <path class="cls-1" d="m141.51,37.48l0,-5.39l-1.24,0l0,-1.17l1.24,0l0,-2.7l1.33,0l0,2.7l2.83,0l0,1.17l-2.83,0l0,5.21c0,1.09 0.6,1.49 1.5,1.49c0.45,0 0.83,-0.09 1.29,-0.31l0,1.14c-0.47,0.24 -0.97,0.38 -1.61,0.38c-1.44,0 -2.52,-0.71 -2.52,-2.52l0.01,0z" id="svg_29"/>
    <path class="cls-1" d="m146.85,38.71l0.67,-0.95c0.97,0.72 2.04,1.14 3.09,1.14s1.85,-0.55 1.85,-1.42l0,-0.03c0,-0.9 -1.05,-1.24 -2.23,-1.57c-1.4,-0.4 -2.95,-0.88 -2.95,-2.52l0,-0.03c0,-1.54 1.28,-2.55 3.04,-2.55c1.09,0 2.3,0.38 3.21,0.99l-0.6,1c-0.83,-0.54 -1.78,-0.87 -2.64,-0.87c-1.05,0 -1.73,0.55 -1.73,1.29l0,0.03c0,0.85 1.11,1.17 2.3,1.54c1.38,0.42 2.87,0.95 2.87,2.56l0,0.03c0,1.69 -1.4,2.68 -3.18,2.68c-1.28,0 -2.7,-0.5 -3.7,-1.31l0.01,0l-0.01,-0.01z" id="svg_30"/>
   </g>
  </g>
 </g>
</svg>