<svg width="14" height="18" viewBox="0 0 14 18" fill="none" xmlns="http://www.w3.org/2000/svg">
<g clip-path="url(#clip0_1804_9658)">
<path d="M5.63491 16.0649C5.63491 16.1089 5.64481 16.1517 5.66462 16.1908L6.50986 17.8496C6.61333 18.057 6.91064 18.0576 7.01383 17.8496L7.85907 16.1908C7.87478 16.1599 7.88887 16.1001 7.88887 16.0649V13.4975H5.63491V16.0649ZM10.495 7.55262L10.0636 3.38631H11.5516C12.0182 3.38631 12.3968 3.00772 12.3968 2.57278V0.818911C12.3968 0.383966 12.02 0.00537109 11.5516 0.00537109H1.97222C1.50558 0.00537109 1.12698 0.383966 1.12698 0.818911V2.47769C1.12698 3.00772 1.50558 3.35462 1.97222 3.35462H3.45913L3.02771 7.55262C1.31962 8.34503 0 9.77137 0 11.5252C0 11.9919 0.378595 12.3388 0.845236 12.3388H12.6785C13.1452 12.3388 13.5238 11.9602 13.5238 11.5252C13.5238 9.75376 12.1855 8.33799 10.495 7.55262Z" fill="#41393B"/>
</g>
<defs>
<clipPath id="clip0_1804_9658">
<rect width="13.5" height="18" fill="white" transform="translate(0 0.00537109)"/>
</clipPath>
</defs>
</svg>
